<svg width="80" height="80" viewBox="0 0 80 80" fill="none" xmlns="http://www.w3.org/2000/svg">
<g clip-path="url(#clip0)">
<path d="M26.3001 19.7C26.0001 19.4 25.6001 19.2 25.2001 19.2C24.8001 19.2 24.4001 19.4 24.1001 19.7C23.8001 20 23.6001 20.4 23.6001 20.8C23.6001 21.2 23.8001 21.6 24.1001 21.9C24.4001 22.2 24.8001 22.4 25.2001 22.4C25.6001 22.4 26.0001 22.2 26.3001 21.9C26.6001 21.6 26.8001 21.2 26.8001 20.8C26.8001 20.4 26.6001 20 26.3001 19.7Z" fill="#35236D"/>
<path d="M73 33.3C72.7 33 72.3 32.8 71.9 32.8C71.5 32.8 71.1 33 70.8 33.3C70.5 33.6 70.3 34 70.3 34.4C70.3 34.8 70.5 35.2 70.8 35.5C71.1 35.8 71.5 36 71.9 36C72.3 36 72.7 35.8 73 35.5C73.3 35.2 73.5 34.8 73.5 34.4C73.5 34 73.3 33.6 73 33.3Z" fill="#35236D"/>
<path d="M51.1 0C46 0 41 1.3 36.6 3.9C32.4 6.4 28.8 9.9 26.3 14.1C25.9 14.8 26.1 15.8 26.9 16.2C27.6 16.6 28.6 16.4 29 15.6C31.3 11.6 34.6 8.5 38.5 6.3V6.8C38.5 9.3 40.5 11.3 43 11.3C43.7 11.3 44.4 11.9 44.4 12.7V17.4C44.4 18.1 43.8 18.8 43 18.8H39C36.3 18.8 34.1 21 34.1 23.7V25.9C31.9 25.4 29.7 25.1 27.4 25.1C12.3 25.1 0 37.4 0 52.5C0 67.6 12.3 80 27.5 80C35.6 80 43 76.4 48 70.8C48.1 70.7 48.2 70.6 48.3 70.5C51.6 66.7 53.8 62.1 54.7 56.9C61.5 56.1 67.7 52.9 72.3 47.8C77.1 42.5 79.8 35.7 79.8 28.5C79.7 12.8 66.8 0 51.1 0ZM53.8 3.3C65.9 4.6 75.5 14.4 76.4 26.6H68.2C66 26.6 64.3 24.8 64.3 22.7V19.4C64.3 18.1 63.4 16.9 62.1 16.6L59.5 15.9C60.1 15.4 60.4 14.6 60.4 13.8V13.3C60.4 11.7 59.1 10.4 57.5 10.4H54.4C54 10.4 53.7 10.1 53.7 9.7L53.8 3.3ZM39.3 35.8L35.7 29.6C39.9 31.1 43.5 33.7 46.3 37.1L39.3 35.8ZM48.8 40.8C50.2 43.3 51.1 46.1 51.5 49L44.5 56.1L36.8 54.4L34.2 46.4L39.1 38.9L48.8 40.8ZM27.5 28.2C28.9 28.2 30.2 28.3 31.5 28.5L36.5 37.2L31.6 44.7H23.2L18.3 37.2L23.3 28.5C24.8 28.3 26.1 28.2 27.5 28.2ZM33.8 55.1L30.7 57.4L27.6 59.7L21.3 55.2L23.7 47.8H31.4L33.8 55.1ZM19.2 29.6L15.6 35.8L8.6 37.1C11.4 33.8 15 31.2 19.2 29.6ZM6.2 40.8L15.9 39L20.8 46.5L18.2 54.5L10.6 56.2H10.4L3.4 49C3.8 46 4.8 43.3 6.2 40.8ZM7.4 66.2C4.9 62.5 3.3 58 3.2 53.2L8.3 58.4L7.4 66.2ZM10.1 69.6L11.3 59.2L19 57.5L25.9 62.5V69.9L18.5 75.2C15.3 73.9 12.5 72 10.1 69.6ZM27.5 76.9C25.7 76.9 23.9 76.7 22.2 76.3L27.5 72.5L33.4 76.1C31.6 76.6 29.5 76.9 27.5 76.9ZM37.3 74.8L29 69.8V62.5L35.9 57.5L36.3 57.6L43.6 59.2L45.2 69.2C43 71.5 40.3 73.4 37.3 74.8ZM47.9 65.7L46.7 58.4L51.8 53.3C51.7 57.9 50.2 62.1 47.9 65.7ZM67 48.5L64.2 42.4C63.4 40.8 61.8 39.7 60 39.7C59.2 39.7 58.5 39 58.5 38.2V37.6C58.5 36.8 59.2 36.1 60 36.1H66.7C67.6 36.1 68.3 35.4 68.3 34.5C68.3 33.6 67.6 32.9 66.7 32.9H60C57.4 32.9 55.4 35 55.4 37.5V38.1C55.4 40.7 57.5 42.7 60 42.7C60.6 42.7 61.1 43 61.4 43.6L64.5 50.3C61.7 52 58.5 53.2 55 53.8C55 53.4 55 53 55 52.6C55 40.9 47.7 30.9 37.4 27V26.9V23.8C37.4 22.8 38.2 22.1 39.1 22.1H43.1C45.6 22.1 47.6 20.1 47.6 17.6V12.9C47.6 10.4 45.6 8.4 43.1 8.4C42.4 8.4 41.7 7.8 41.7 7V5C44.5 3.9 47.5 3.3 50.6 3.2V9.7C50.6 11.8 52.3 13.5 54.4 13.5H57.3V13.7C56.4 14.3 55.9 15.4 56.1 16.5C56.3 17.6 57.1 18.5 58.2 18.8L61.1 19.5V22.6C61.1 26.5 64.3 29.7 68.2 29.7H76.4C76.2 37.3 72.6 44 67 48.5Z" fill="#35236D"/>
</g>
<defs>
<clipPath id="clip0">
<rect width="79.7" height="80" fill="white"/>
</clipPath>
</defs>
</svg>
