<svg width="70" height="80" viewBox="0 0 70 80" fill="none" xmlns="http://www.w3.org/2000/svg">
<g clip-path="url(#clip0)">
<path d="M54.6001 25C53.9001 24.3 52.9001 24.4 52.3001 25C51.7001 25.6 51.7001 26.6 52.3001 27.2C52.6001 27.5 53.0001 27.7 53.4001 27.7C53.8001 27.7 54.2001 27.5 54.5001 27.2C55.3001 26.6 55.2001 25.7 54.6001 25Z" fill="#35236D"/>
<path d="M59.1 30.7C58.7 30 57.7 29.7 57 30.2C56.3 30.6 56 31.6 56.5 32.3C62.4 42.3 60.9 54.9 52.7 63.2C47.9 68 41.6 70.6 34.8 70.6C28 70.6 21.7 68 16.9 63.2C7 53.3 7 37.3 16.9 27.4C25.2 19.1 38 17.6 48.1 23.7C48.8 24.2 49.8 23.9 50.2 23.2C50.7 22.5 50.4 21.5 49.7 21.1C44.3 17.8 37.9 16.4 31.7 17.1C25.3 17.8 19.3 20.7 14.7 25.3C3.6 36.4 3.6 54.4 14.7 65.5C20.1 70.9 27.2 73.8 34.8 73.8C42.4 73.8 49.5 70.8 54.9 65.5C64 56.2 65.8 41.9 59.1 30.7Z" fill="#35236D"/>
<path d="M12.5 67.7C11.8 67 10.8 67 10.2 67.6C9.6 68.2 9.6 69.2 10.2 69.8L10.3 69.9C10.6 70.2 11 70.4 11.4 70.4C11.8 70.4 12.2 70.2 12.5 69.9C13.1 69.3 13.1 68.3 12.5 67.7Z" fill="#35236D"/>
<path d="M63.1 25.5L67 21.6C67.3 21.3 67.5 20.9 67.5 20.5C67.5 20.1 67.3 19.7 67 19.4L61.2 13.6C60.6 13 59.6 13 59 13.6L55.2 17.4C50.8 14.1 45.7 12 40.2 11.1V9.1C42 8.5 43.3 6.7 43.3 4.7C43.3 2.1 41.2 0 38.6 0H31.1C28.5 0 26.4 2.1 26.4 4.7C26.4 6.7 27.7 8.5 29.5 9.1V11C24 11.8 18.8 13.9 14.3 17.1L10.7 13.5C10.1 12.9 9.10001 12.9 8.50001 13.5L2.70001 19.3C2.40001 19.6 2.20001 20 2.20001 20.4C2.20001 20.8 2.40001 21.2 2.70001 21.5L6.30001 25.1C-1.99999 36.7 -2.39999 52.6 5.80001 64.7C6.30001 65.4 7.30001 65.6 8.00001 65.1C8.80001 64.6 9.00001 63.7 8.50001 63C0.100011 50.5 1.70001 33.7 12.4 23C18.4 17 26.3 13.8 34.7 13.8C43.1 13.8 51 17 57 23C63 29 66.2 36.9 66.2 45.3C66.2 53.7 62.9 61.7 57 67.6C46.1 78.5 29.1 80 16.6 71.2C15.9 70.7 14.9 70.9 14.4 71.6C13.9 72.3 14.1 73.3 14.8 73.8C20.6 77.9 27.6 80.1 34.7 80.1C35.6 80.1 36.6 80.1 37.5 80C45.7 79.3 53.4 75.8 59.2 70C65.8 63.4 69.4 54.7 69.4 45.5C69.4 38.1 67.2 31.2 63.1 25.5ZM10.2 20.8C9.50001 21.4 9.00001 22 8.40001 22.7L6.20001 20.5L9.80001 16.9L12 19.1C11.4 19.6 10.7 20.2 10.2 20.8ZM37.1 10.7C36.3 10.6 35.5 10.6 34.6 10.6C34 10.6 33.3 10.6 32.7 10.7V9.4H37.1V10.7ZM38.7 6.3H31.2C30.3 6.3 29.6 5.6 29.6 4.7C29.6 3.8 30.3 3.1 31.2 3.1H38.7C39.6 3.1 40.3 3.8 40.3 4.7C40.3 5.6 39.6 6.3 38.7 6.3ZM59.2 20.8C58.7 20.3 58.2 19.8 57.7 19.4L60.2 16.9L63.8 20.5L61.2 23C60.6 22.2 59.9 21.5 59.2 20.8Z" fill="#35236D"/>
<path d="M49.5 34.4H19.8C15.4 34.4 11.8 38 11.8 42.4V48.2C11.8 52.6 15.4 56.2 19.8 56.2H49.5C53.9001 56.2 57.5 52.6 57.5 48.2V42.4C57.5 38 53.9001 34.4 49.5 34.4ZM54.4001 48.2C54.4001 50.9 52.2001 53.1 49.5 53.1H19.8C17.1 53.1 14.9 50.9 14.9 48.2V42.4C14.9 39.7 17.1 37.5 19.8 37.5H49.5C52.2001 37.5 54.4001 39.7 54.4001 42.4V48.2Z" fill="#35236D"/>
<path d="M22.5 39.7H21.2C19 39.7 17.2 41.5 17.2 43.7V46.9C17.2 49.1 19 50.9 21.2 50.9H22.5C24.7 50.9 26.5 49.1 26.5 46.9V43.7C26.5 41.5 24.7 39.7 22.5 39.7ZM23.4 46.9C23.4 47.4 23 47.8 22.5 47.8H21.2C20.7 47.8 20.2999 47.4 20.2999 46.9V43.7C20.2999 43.2 20.7 42.8 21.2 42.8H22.5C23 42.8 23.4 43.2 23.4 43.7V46.9Z" fill="#35236D"/>
<path d="M37.5 39.7H36.2C34 39.7 32.2 41.5 32.2 43.7V46.9C32.2 49.1 34 50.9 36.2 50.9H37.5C39.7 50.9 41.5 49.1 41.5 46.9V43.7C41.6 41.5 39.8 39.7 37.5 39.7ZM38.5 46.9C38.5 47.4 38.0999 47.8 37.5999 47.8H36.2999C35.7999 47.8 35.4 47.4 35.4 46.9V43.7C35.4 43.2 35.7999 42.8 36.2999 42.8H37.5999C38.0999 42.8 38.5 43.2 38.5 43.7V46.9Z" fill="#35236D"/>
<path d="M48.5 39.7H47.2C45 39.7 43.2 41.5 43.2 43.7V46.9C43.2 49.1 45 50.9 47.2 50.9H48.5C50.7 50.9 52.5 49.1 52.5 46.9V43.7C52.5 41.5 50.7 39.7 48.5 39.7ZM49.4 46.9C49.4 47.4 49 47.8 48.5 47.8H47.2C46.7 47.8 46.2999 47.4 46.2999 46.9V43.7C46.2999 43.2 46.7 42.8 47.2 42.8H48.5C49 42.8 49.4 43.2 49.4 43.7V46.9Z" fill="#35236D"/>
<path d="M30.4 41.5C30.1 41.2 29.6999 41 29.2999 41C28.8999 41 28.5 41.2 28.2 41.5C27.9 41.8 27.7 42.2 27.7 42.6C27.7 43 27.9 43.4 28.2 43.7C28.5 44 28.8999 44.2 29.2999 44.2C29.6999 44.2 30.1 44 30.4 43.7C30.6999 43.4 30.9 43 30.9 42.6C30.9 42.2 30.6999 41.8 30.4 41.5Z" fill="#35236D"/>
<path d="M30.4 47C30.1 46.7 29.6999 46.5 29.2999 46.5C28.8999 46.5 28.5 46.7 28.2 47C27.9 47.3 27.7 47.7 27.7 48.1C27.7 48.5 27.9 48.9 28.2 49.2C28.5 49.5 28.8999 49.7 29.2999 49.7C29.6999 49.7 30.1 49.5 30.4 49.2C30.6999 48.9 30.9 48.5 30.9 48.1C30.9 47.7 30.6999 47.3 30.4 47Z" fill="#35236D"/>
</g>
<defs>
<clipPath id="clip0">
<rect width="69.4" height="80" fill="white"/>
</clipPath>
</defs>
</svg>
