<svg width="100%" height="747" viewBox="0 0 1940 747" fill="none" xmlns="http://www.w3.org/2000/svg">
<rect width="1940" height="747" fill="white"/>
<path d="M1512 18C1497.08 18 1485 30.0825 1485 45C1485 59.9175 1497.08 72 1512 72C1526.92 72 1539 59.9175 1539 45C1539 30.0825 1526.92 18 1512 18ZM1512.95 25.7625L1522.33 22.05C1523.41 22.5225 1524.42 23.0625 1525.43 23.7375C1526.38 24.345 1527.32 25.02 1528.2 25.7625L1528.27 25.83C1528.67 26.1675 1529.08 26.505 1529.42 26.8425C1529.48 26.91 1529.48 26.91 1529.55 26.9775C1529.96 27.3825 1530.29 27.72 1530.7 28.125C1530.7 28.1925 1530.77 28.1925 1530.77 28.26C1531.1 28.5975 1531.37 29.0025 1531.71 29.34C1531.78 29.4075 1531.85 29.5425 1531.91 29.61C1532.25 30.015 1532.52 30.4875 1532.86 30.8925L1531.03 38.925L1521.85 41.9625L1512.95 34.875V25.7625ZM1492.02 29.6775C1492.09 29.61 1492.16 29.475 1492.22 29.4075C1492.49 29.0025 1492.83 28.665 1493.17 28.3275C1493.24 28.26 1493.23 28.26 1493.23 28.1925C1493.57 27.7875 1493.98 27.3825 1494.38 27.045C1494.45 26.9775 1494.45 26.9775 1494.52 26.91C1494.86 26.5725 1495.26 26.235 1495.66 25.8975L1495.73 25.83C1496.61 25.0875 1497.56 24.4125 1498.5 23.805H1498.57C1499.58 23.1975 1500.59 22.6575 1501.61 22.1175L1511.06 25.83V34.875L1502.15 41.9625L1492.97 38.925L1491.08 30.96C1491.41 30.4875 1491.68 30.0825 1492.02 29.6775ZM1490.94 58.8375C1490.67 58.4325 1490.4 58.0275 1490.2 57.6225L1490.13 57.555C1489.86 57.15 1489.66 56.745 1489.45 56.2725C1488.98 55.395 1488.58 54.45 1488.24 53.505C1488.11 53.0325 1487.9 52.6275 1487.77 52.155L1487.7 51.9525C1487.57 51.5475 1487.5 51.075 1487.36 50.6025C1487.36 50.535 1487.36 50.535 1487.36 50.4675C1487.16 49.455 1486.96 48.4425 1486.89 47.43L1492.36 40.815L1501.47 43.8525L1504.24 54.45L1499.85 60.1875L1490.94 58.8375ZM1518.01 69.5025C1517.53 69.6375 1517.06 69.705 1516.66 69.7725C1516.59 69.7725 1516.52 69.7725 1516.45 69.84C1516.05 69.9075 1515.65 69.975 1515.24 70.0425C1515.1 70.0425 1515.04 70.0425 1514.9 70.11C1514.57 70.1775 1514.16 70.1775 1513.75 70.245C1513.62 70.245 1513.55 70.245 1513.42 70.245C1512.94 70.245 1512.47 70.3125 1512 70.3125C1511.53 70.3125 1511.12 70.3125 1510.65 70.245C1510.58 70.245 1510.51 70.245 1510.51 70.245C1510.11 70.245 1509.7 70.1775 1509.37 70.1775H1509.3C1508.42 70.11 1507.61 69.975 1506.74 69.7725L1501.4 61.47L1505.72 55.7325H1518.28L1522.67 61.47L1518.01 69.5025ZM1536.64 50.4C1536.64 50.4675 1536.64 50.4675 1536.64 50.535C1536.57 51.0075 1536.44 51.4125 1536.3 51.885L1536.23 52.0875C1536.1 52.56 1535.96 53.0325 1535.76 53.4375C1535.42 54.3825 1535.02 55.3275 1534.55 56.205C1534.34 56.61 1534.07 57.0825 1533.87 57.4875L1533.8 57.555C1533.53 57.96 1533.33 58.365 1533.06 58.77L1524.15 60.1875L1519.76 54.3825L1522.4 43.785L1531.58 40.7475L1537.04 47.3625C1536.97 48.375 1536.84 49.3875 1536.64 50.4Z" fill="#FFCA00" fill-opacity="0.3"/>
<path d="M1245 611C1226.22 611 1211 626.215 1211 645C1211 663.785 1226.22 679 1245 679C1263.79 679 1279 663.785 1279 645C1279 626.215 1263.79 611 1245 611ZM1246.19 620.775L1258.01 616.1C1259.37 616.695 1260.64 617.375 1261.92 618.225C1263.11 618.99 1264.3 619.84 1265.4 620.775L1265.49 620.86C1265.99 621.285 1266.51 621.71 1266.93 622.135C1267.02 622.22 1267.02 622.22 1267.1 622.305C1267.61 622.815 1268.03 623.24 1268.54 623.75C1268.54 623.835 1268.63 623.835 1268.63 623.92C1269.06 624.345 1269.4 624.855 1269.82 625.28C1269.9 625.365 1269.99 625.535 1270.08 625.62C1270.5 626.13 1270.84 626.725 1271.27 627.235L1268.97 637.35L1257.41 641.175L1246.19 632.25V620.775ZM1219.84 625.705C1219.93 625.62 1220.01 625.45 1220.1 625.365C1220.44 624.855 1220.86 624.43 1221.29 624.005C1221.37 623.92 1221.37 623.92 1221.37 623.835C1221.8 623.325 1222.31 622.815 1222.81 622.39C1222.9 622.305 1222.9 622.305 1222.99 622.22C1223.41 621.795 1223.92 621.37 1224.43 620.945L1224.52 620.86C1225.62 619.925 1226.81 619.075 1228 618.31H1228.09C1229.36 617.545 1230.64 616.865 1231.91 616.185L1243.81 620.86V632.25L1232.59 641.175L1221.03 637.35L1218.65 627.32C1219.07 626.725 1219.41 626.215 1219.84 625.705ZM1218.48 662.425C1218.14 661.915 1217.8 661.405 1217.55 660.895L1217.46 660.81C1217.12 660.3 1216.87 659.79 1216.61 659.195C1216.01 658.09 1215.51 656.9 1215.08 655.71C1214.91 655.115 1214.65 654.605 1214.49 654.01L1214.4 653.755C1214.23 653.245 1214.14 652.65 1213.98 652.055C1213.98 651.97 1213.98 651.97 1213.98 651.885C1213.72 650.61 1213.46 649.335 1213.38 648.06L1220.27 639.73L1231.74 643.555L1235.23 656.9L1229.7 664.125L1218.48 662.425ZM1252.57 675.855C1251.97 676.025 1251.38 676.11 1250.87 676.195C1250.78 676.195 1250.69 676.195 1250.61 676.28C1250.1 676.365 1249.59 676.45 1249.08 676.535C1248.91 676.535 1248.83 676.535 1248.65 676.62C1248.23 676.705 1247.72 676.705 1247.21 676.79C1247.04 676.79 1246.95 676.79 1246.78 676.79C1246.19 676.79 1245.6 676.875 1245 676.875C1244.41 676.875 1243.9 676.875 1243.3 676.79C1243.22 676.79 1243.13 676.79 1243.13 676.79C1242.62 676.79 1242.11 676.705 1241.68 676.705H1241.6C1240.5 676.62 1239.48 676.45 1238.37 676.195L1231.66 665.74L1237.1 658.515H1252.9L1258.43 665.74L1252.57 675.855ZM1276.03 651.8C1276.03 651.885 1276.03 651.885 1276.03 651.97C1275.94 652.565 1275.77 653.075 1275.6 653.67L1275.51 653.925C1275.35 654.52 1275.17 655.115 1274.92 655.625C1274.49 656.815 1273.99 658.005 1273.39 659.11C1273.14 659.62 1272.8 660.215 1272.54 660.725L1272.46 660.81C1272.12 661.32 1271.86 661.83 1271.52 662.34L1260.3 664.125L1254.78 656.815L1258.09 643.47L1269.65 639.645L1276.54 647.975C1276.45 649.25 1276.28 650.525 1276.03 651.8Z" fill="#FFCA00" fill-opacity="0.3"/>
<path d="M1787 246C1774.29 246 1764 256.292 1764 269C1764 281.708 1774.29 292 1787 292C1799.71 292 1810 281.708 1810 269C1810 256.292 1799.71 246 1787 246ZM1787.81 252.612L1795.8 249.45C1796.72 249.852 1797.58 250.312 1798.44 250.887C1799.25 251.405 1800.05 251.98 1800.8 252.612L1800.86 252.67C1801.2 252.957 1801.55 253.245 1801.83 253.533C1801.89 253.59 1801.89 253.59 1801.95 253.648C1802.29 253.992 1802.58 254.28 1802.93 254.625C1802.93 254.682 1802.99 254.682 1802.99 254.74C1803.27 255.028 1803.5 255.372 1803.79 255.66C1803.85 255.717 1803.9 255.833 1803.96 255.89C1804.25 256.235 1804.48 256.637 1804.77 256.983L1803.21 263.825L1795.39 266.413L1787.81 260.375V252.612ZM1769.98 255.947C1770.04 255.89 1770.09 255.775 1770.15 255.717C1770.38 255.372 1770.67 255.085 1770.96 254.797C1771.01 254.74 1771.01 254.74 1771.01 254.682C1771.3 254.337 1771.65 253.992 1771.99 253.705C1772.05 253.647 1772.05 253.647 1772.11 253.59C1772.4 253.302 1772.74 253.015 1773.09 252.727L1773.14 252.67C1773.89 252.037 1774.69 251.463 1775.5 250.945H1775.56C1776.42 250.428 1777.28 249.967 1778.14 249.507L1786.19 252.67V260.375L1778.6 266.413L1770.78 263.825L1769.17 257.04C1769.46 256.637 1769.69 256.292 1769.98 255.947ZM1769.06 280.787C1768.83 280.443 1768.6 280.097 1768.43 279.752L1768.37 279.695C1768.14 279.35 1767.97 279.005 1767.79 278.603C1767.39 277.855 1767.05 277.05 1766.76 276.245C1766.64 275.842 1766.47 275.497 1766.36 275.095L1766.3 274.922C1766.18 274.577 1766.13 274.175 1766.01 273.772C1766.01 273.715 1766.01 273.715 1766.01 273.657C1765.84 272.795 1765.67 271.932 1765.61 271.07L1770.27 265.435L1778.03 268.022L1780.39 277.05L1776.65 281.938L1769.06 280.787ZM1792.12 289.873C1791.72 289.987 1791.31 290.045 1790.97 290.102C1790.91 290.102 1790.85 290.103 1790.79 290.16C1790.45 290.218 1790.1 290.275 1789.76 290.332C1789.64 290.332 1789.59 290.332 1789.47 290.39C1789.18 290.447 1788.84 290.447 1788.49 290.505C1788.38 290.505 1788.32 290.505 1788.21 290.505C1787.8 290.505 1787.4 290.562 1787 290.562C1786.6 290.562 1786.25 290.562 1785.85 290.505C1785.79 290.505 1785.73 290.505 1785.73 290.505C1785.39 290.505 1785.04 290.448 1784.76 290.448H1784.7C1783.95 290.39 1783.26 290.275 1782.51 290.102L1777.97 283.03L1781.65 278.143H1792.35L1796.08 283.03L1792.12 289.873ZM1807.99 273.6C1807.99 273.657 1807.99 273.657 1807.99 273.715C1807.93 274.118 1807.81 274.462 1807.7 274.865L1807.64 275.037C1807.53 275.44 1807.41 275.842 1807.24 276.188C1806.95 276.992 1806.61 277.797 1806.21 278.545C1806.03 278.89 1805.8 279.292 1805.63 279.638L1805.57 279.695C1805.34 280.04 1805.17 280.385 1804.94 280.73L1797.35 281.938L1793.61 276.993L1795.85 267.965L1803.67 265.378L1808.33 271.012C1808.27 271.875 1808.16 272.737 1807.99 273.6Z" fill="#FFCA00" fill-opacity="0.3"/>
<path d="M409 145C390.215 145 375 160.215 375 179C375 197.785 390.215 213 409 213C427.785 213 443 197.785 443 179C443 160.215 427.785 145 409 145ZM410.19 154.775L422.005 150.1C423.365 150.695 424.64 151.375 425.915 152.225C427.105 152.99 428.295 153.84 429.4 154.775L429.485 154.86C429.995 155.285 430.505 155.71 430.93 156.135C431.015 156.22 431.015 156.22 431.1 156.305C431.61 156.815 432.035 157.24 432.545 157.75C432.545 157.835 432.63 157.835 432.63 157.92C433.055 158.345 433.395 158.855 433.82 159.28C433.905 159.365 433.99 159.535 434.075 159.62C434.5 160.13 434.84 160.725 435.265 161.235L432.97 171.35L421.41 175.175L410.19 166.25V154.775ZM383.84 159.705C383.925 159.62 384.01 159.45 384.095 159.365C384.435 158.855 384.86 158.43 385.285 158.005C385.37 157.92 385.37 157.92 385.37 157.835C385.795 157.325 386.305 156.815 386.815 156.39C386.9 156.305 386.9 156.305 386.985 156.22C387.41 155.795 387.92 155.37 388.43 154.945L388.515 154.86C389.62 153.925 390.81 153.075 392 152.31H392.085C393.36 151.545 394.635 150.865 395.91 150.185L407.81 154.86V166.25L396.59 175.175L385.03 171.35L382.65 161.32C383.075 160.725 383.415 160.215 383.84 159.705ZM382.48 196.425C382.14 195.915 381.8 195.405 381.545 194.895L381.46 194.81C381.12 194.3 380.865 193.79 380.61 193.195C380.015 192.09 379.505 190.9 379.08 189.71C378.91 189.115 378.655 188.605 378.485 188.01L378.4 187.755C378.23 187.245 378.145 186.65 377.975 186.055C377.975 185.97 377.975 185.97 377.975 185.885C377.72 184.61 377.465 183.335 377.38 182.06L384.265 173.73L395.74 177.555L399.225 190.9L393.7 198.125L382.48 196.425ZM416.565 209.855C415.97 210.025 415.375 210.11 414.865 210.195C414.78 210.195 414.695 210.195 414.61 210.28C414.1 210.365 413.59 210.45 413.08 210.535C412.91 210.535 412.825 210.535 412.655 210.62C412.23 210.705 411.72 210.705 411.21 210.79C411.04 210.79 410.955 210.79 410.785 210.79C410.19 210.79 409.595 210.875 409 210.875C408.405 210.875 407.895 210.875 407.3 210.79C407.215 210.79 407.13 210.79 407.13 210.79C406.62 210.79 406.11 210.705 405.685 210.705H405.6C404.495 210.62 403.475 210.45 402.37 210.195L395.655 199.74L401.095 192.515H416.905L422.43 199.74L416.565 209.855ZM440.025 185.8C440.025 185.885 440.025 185.885 440.025 185.97C439.94 186.565 439.77 187.075 439.6 187.67L439.515 187.925C439.345 188.52 439.175 189.115 438.92 189.625C438.495 190.815 437.985 192.005 437.39 193.11C437.135 193.62 436.795 194.215 436.54 194.725L436.455 194.81C436.115 195.32 435.86 195.83 435.52 196.34L424.3 198.125L418.775 190.815L422.09 177.47L433.65 173.645L440.535 181.975C440.45 183.25 440.28 184.525 440.025 185.8Z" fill="#FFCA00" fill-opacity="0.3"/>
<path d="M606 533C594.397 533 585 542.397 585 554C585 565.602 594.397 575 606 575C617.602 575 627 565.602 627 554C627 542.397 617.602 533 606 533ZM606.735 539.037L614.032 536.15C614.872 536.517 615.66 536.937 616.448 537.462C617.182 537.935 617.917 538.46 618.6 539.037L618.652 539.09C618.967 539.352 619.283 539.615 619.545 539.878C619.597 539.93 619.597 539.93 619.65 539.982C619.965 540.297 620.227 540.56 620.542 540.875C620.542 540.927 620.595 540.927 620.595 540.98C620.857 541.242 621.067 541.557 621.33 541.82C621.382 541.872 621.435 541.977 621.487 542.03C621.75 542.345 621.96 542.712 622.222 543.028L620.805 549.275L613.665 551.637L606.735 546.125V539.037ZM590.46 542.082C590.512 542.03 590.565 541.925 590.617 541.872C590.827 541.557 591.09 541.295 591.352 541.032C591.405 540.98 591.405 540.98 591.405 540.927C591.667 540.612 591.982 540.297 592.297 540.035C592.35 539.982 592.35 539.982 592.402 539.93C592.665 539.667 592.98 539.405 593.295 539.142L593.347 539.09C594.03 538.512 594.765 537.988 595.5 537.515H595.552C596.34 537.043 597.127 536.622 597.915 536.202L605.265 539.09V546.125L598.335 551.637L591.195 549.275L589.725 543.08C589.987 542.712 590.197 542.397 590.46 542.082ZM589.62 564.762C589.41 564.447 589.2 564.132 589.042 563.817L588.99 563.765C588.78 563.45 588.622 563.135 588.465 562.767C588.097 562.085 587.783 561.35 587.52 560.615C587.415 560.247 587.257 559.932 587.152 559.565L587.1 559.407C586.995 559.092 586.942 558.725 586.837 558.357C586.837 558.305 586.837 558.305 586.837 558.252C586.68 557.465 586.522 556.677 586.47 555.89L590.722 550.745L597.81 553.107L599.962 561.35L596.55 565.812L589.62 564.762ZM610.672 573.057C610.305 573.162 609.938 573.215 609.622 573.267C609.57 573.267 609.517 573.267 609.465 573.32C609.15 573.373 608.835 573.425 608.52 573.477C608.415 573.477 608.362 573.477 608.257 573.53C607.995 573.582 607.68 573.583 607.365 573.635C607.26 573.635 607.207 573.635 607.102 573.635C606.735 573.635 606.367 573.688 606 573.688C605.632 573.688 605.317 573.688 604.95 573.635C604.897 573.635 604.845 573.635 604.845 573.635C604.53 573.635 604.215 573.583 603.952 573.583H603.9C603.217 573.53 602.587 573.425 601.905 573.267L597.757 566.81L601.118 562.347H610.882L614.295 566.81L610.672 573.057ZM625.162 558.2C625.162 558.252 625.162 558.252 625.162 558.305C625.11 558.672 625.005 558.987 624.9 559.355L624.847 559.512C624.743 559.88 624.637 560.247 624.48 560.562C624.217 561.297 623.903 562.032 623.535 562.715C623.377 563.03 623.167 563.397 623.01 563.712L622.958 563.765C622.748 564.08 622.59 564.395 622.38 564.71L615.45 565.812L612.037 561.297L614.085 553.055L621.225 550.692L625.477 555.837C625.425 556.625 625.32 557.412 625.162 558.2Z" fill="#FFCA00" fill-opacity="0.3"/>
<path d="M199 628C182.977 628 170 640.977 170 657C170 673.023 182.977 686 199 686C215.023 686 228 673.023 228 657C228 640.977 215.023 628 199 628ZM200.015 636.338L210.093 632.35C211.253 632.858 212.34 633.438 213.428 634.163C214.443 634.815 215.458 635.54 216.4 636.338L216.472 636.41C216.908 636.773 217.343 637.135 217.705 637.498C217.778 637.57 217.778 637.57 217.85 637.643C218.285 638.078 218.647 638.44 219.083 638.875C219.083 638.948 219.155 638.948 219.155 639.02C219.518 639.383 219.807 639.818 220.17 640.18C220.243 640.252 220.315 640.398 220.388 640.47C220.75 640.905 221.04 641.413 221.403 641.848L219.445 650.475L209.585 653.738L200.015 646.125V636.338ZM177.54 640.542C177.613 640.47 177.685 640.325 177.758 640.253C178.047 639.818 178.41 639.455 178.773 639.093C178.845 639.02 178.845 639.02 178.845 638.948C179.208 638.513 179.642 638.078 180.078 637.715C180.15 637.642 180.15 637.642 180.223 637.57C180.585 637.208 181.02 636.845 181.455 636.483L181.528 636.41C182.47 635.613 183.485 634.888 184.5 634.235H184.573C185.66 633.583 186.748 633.003 187.835 632.423L197.985 636.41V646.125L188.415 653.738L178.555 650.475L176.525 641.92C176.888 641.413 177.177 640.977 177.54 640.542ZM176.38 671.863C176.09 671.428 175.8 670.993 175.582 670.558L175.51 670.485C175.22 670.05 175.003 669.615 174.785 669.108C174.278 668.165 173.843 667.15 173.48 666.135C173.335 665.627 173.118 665.193 172.973 664.685L172.9 664.467C172.755 664.033 172.683 663.525 172.538 663.018C172.538 662.945 172.538 662.945 172.538 662.873C172.32 661.785 172.102 660.697 172.03 659.61L177.903 652.505L187.69 655.767L190.663 667.15L185.95 673.312L176.38 671.863ZM205.453 683.318C204.945 683.463 204.438 683.535 204.003 683.607C203.93 683.607 203.857 683.608 203.785 683.68C203.35 683.753 202.915 683.825 202.48 683.897C202.335 683.897 202.263 683.897 202.118 683.97C201.755 684.042 201.32 684.043 200.885 684.115C200.74 684.115 200.667 684.115 200.522 684.115C200.015 684.115 199.508 684.188 199 684.188C198.493 684.188 198.058 684.188 197.55 684.115C197.478 684.115 197.405 684.115 197.405 684.115C196.97 684.115 196.535 684.043 196.173 684.043H196.1C195.158 683.97 194.288 683.825 193.345 683.607L187.618 674.69L192.258 668.528H205.743L210.455 674.69L205.453 683.318ZM225.463 662.8C225.463 662.873 225.463 662.873 225.463 662.945C225.39 663.453 225.245 663.888 225.1 664.395L225.028 664.613C224.883 665.12 224.737 665.628 224.52 666.062C224.158 667.077 223.723 668.092 223.215 669.035C222.998 669.47 222.708 669.978 222.49 670.413L222.418 670.485C222.128 670.92 221.91 671.355 221.62 671.79L212.05 673.312L207.338 667.078L210.165 655.695L220.025 652.433L225.897 659.538C225.825 660.625 225.68 661.713 225.463 662.8Z" fill="#FFCA00" fill-opacity="0.3"/>
</svg>
