<svg width="100%" height="924" viewBox="0 0 1920 924" fill="none" xmlns="http://www.w3.org/2000/svg">
<path d="M0 117L1094 0L1920 117V808L762 924L0 808V117Z" fill="#F9F8FF"/>
<path d="M990 760C970.662 760 955 775.662 955 795C955 814.338 970.662 830 990 830C1009.34 830 1025 814.338 1025 795C1025 775.662 1009.34 760 990 760ZM991.225 770.062L1003.39 765.25C1004.79 765.863 1006.1 766.562 1007.41 767.438C1008.64 768.225 1009.86 769.1 1011 770.062L1011.09 770.15C1011.61 770.588 1012.14 771.025 1012.58 771.463C1012.66 771.55 1012.66 771.55 1012.75 771.637C1013.28 772.163 1013.71 772.6 1014.24 773.125C1014.24 773.212 1014.33 773.212 1014.33 773.3C1014.76 773.738 1015.11 774.262 1015.55 774.7C1015.64 774.787 1015.72 774.963 1015.81 775.05C1016.25 775.575 1016.6 776.188 1017.04 776.712L1014.67 787.125L1002.77 791.062L991.225 781.875V770.062ZM964.1 775.137C964.188 775.05 964.275 774.875 964.363 774.787C964.712 774.262 965.15 773.825 965.588 773.387C965.675 773.3 965.675 773.3 965.675 773.213C966.113 772.688 966.637 772.162 967.162 771.725C967.25 771.637 967.25 771.637 967.338 771.55C967.775 771.113 968.3 770.675 968.825 770.238L968.912 770.15C970.05 769.188 971.275 768.312 972.5 767.525H972.587C973.9 766.738 975.212 766.037 976.525 765.338L988.775 770.15V781.875L977.225 791.062L965.325 787.125L962.875 776.8C963.312 776.188 963.662 775.662 964.1 775.137ZM962.7 812.938C962.35 812.412 962 811.888 961.737 811.362L961.65 811.275C961.3 810.75 961.037 810.225 960.775 809.612C960.162 808.475 959.638 807.25 959.2 806.025C959.025 805.412 958.762 804.887 958.587 804.275L958.5 804.013C958.325 803.487 958.237 802.875 958.062 802.263C958.062 802.175 958.062 802.175 958.062 802.087C957.8 800.775 957.537 799.462 957.45 798.15L964.537 789.575L976.35 793.513L979.938 807.25L974.25 814.688L962.7 812.938ZM997.788 826.763C997.175 826.938 996.562 827.025 996.038 827.112C995.95 827.112 995.862 827.113 995.775 827.2C995.25 827.288 994.725 827.375 994.2 827.463C994.025 827.463 993.938 827.462 993.763 827.55C993.325 827.637 992.8 827.638 992.275 827.725C992.1 827.725 992.012 827.725 991.837 827.725C991.225 827.725 990.612 827.812 990 827.812C989.388 827.812 988.862 827.812 988.25 827.725C988.162 827.725 988.075 827.725 988.075 827.725C987.55 827.725 987.025 827.638 986.587 827.638H986.5C985.362 827.55 984.312 827.375 983.175 827.112L976.262 816.35L981.863 808.913H998.138L1003.83 816.35L997.788 826.763ZM1021.94 802C1021.94 802.088 1021.94 802.088 1021.94 802.175C1021.85 802.788 1021.68 803.312 1021.5 803.925L1021.41 804.188C1021.24 804.8 1021.06 805.412 1020.8 805.938C1020.36 807.162 1019.84 808.387 1019.22 809.525C1018.96 810.05 1018.61 810.662 1018.35 811.188L1018.26 811.275C1017.91 811.8 1017.65 812.325 1017.3 812.85L1005.75 814.688L1000.06 807.163L1003.48 793.425L1015.38 789.488L1022.46 798.062C1022.38 799.375 1022.2 800.688 1021.94 802Z" fill="#35236D" fill-opacity="0.1"/>
<path d="M1727 434C1714.29 434 1704 444.292 1704 457C1704 469.708 1714.29 480 1727 480C1739.71 480 1750 469.708 1750 457C1750 444.292 1739.71 434 1727 434ZM1727.81 440.612L1735.8 437.45C1736.72 437.852 1737.58 438.312 1738.44 438.887C1739.25 439.405 1740.05 439.98 1740.8 440.612L1740.86 440.67C1741.2 440.957 1741.55 441.245 1741.83 441.533C1741.89 441.59 1741.89 441.59 1741.95 441.648C1742.29 441.992 1742.58 442.28 1742.93 442.625C1742.93 442.682 1742.99 442.682 1742.99 442.74C1743.27 443.028 1743.5 443.372 1743.79 443.66C1743.85 443.717 1743.9 443.833 1743.96 443.89C1744.25 444.235 1744.48 444.637 1744.77 444.983L1743.21 451.825L1735.39 454.413L1727.81 448.375V440.612ZM1709.98 443.947C1710.04 443.89 1710.09 443.775 1710.15 443.717C1710.38 443.372 1710.67 443.085 1710.96 442.797C1711.01 442.74 1711.01 442.74 1711.01 442.682C1711.3 442.337 1711.65 441.992 1711.99 441.705C1712.05 441.647 1712.05 441.647 1712.11 441.59C1712.4 441.302 1712.74 441.015 1713.09 440.727L1713.14 440.67C1713.89 440.037 1714.69 439.463 1715.5 438.945H1715.56C1716.42 438.428 1717.28 437.967 1718.14 437.507L1726.19 440.67V448.375L1718.6 454.413L1710.78 451.825L1709.17 445.04C1709.46 444.637 1709.69 444.292 1709.98 443.947ZM1709.06 468.787C1708.83 468.443 1708.6 468.097 1708.43 467.752L1708.37 467.695C1708.14 467.35 1707.97 467.005 1707.79 466.603C1707.39 465.855 1707.05 465.05 1706.76 464.245C1706.64 463.842 1706.47 463.497 1706.36 463.095L1706.3 462.922C1706.18 462.577 1706.13 462.175 1706.01 461.772C1706.01 461.715 1706.01 461.715 1706.01 461.657C1705.84 460.795 1705.67 459.932 1705.61 459.07L1710.27 453.435L1718.03 456.022L1720.39 465.05L1716.65 469.938L1709.06 468.787ZM1732.12 477.873C1731.72 477.987 1731.31 478.045 1730.97 478.102C1730.91 478.102 1730.85 478.103 1730.79 478.16C1730.45 478.218 1730.1 478.275 1729.76 478.332C1729.64 478.332 1729.59 478.332 1729.47 478.39C1729.18 478.447 1728.84 478.447 1728.49 478.505C1728.38 478.505 1728.32 478.505 1728.21 478.505C1727.8 478.505 1727.4 478.562 1727 478.562C1726.6 478.562 1726.25 478.562 1725.85 478.505C1725.79 478.505 1725.73 478.505 1725.73 478.505C1725.39 478.505 1725.04 478.448 1724.76 478.448H1724.7C1723.95 478.39 1723.26 478.275 1722.51 478.102L1717.97 471.03L1721.65 466.143H1732.35L1736.08 471.03L1732.12 477.873ZM1747.99 461.6C1747.99 461.657 1747.99 461.657 1747.99 461.715C1747.93 462.118 1747.81 462.462 1747.7 462.865L1747.64 463.037C1747.53 463.44 1747.41 463.842 1747.24 464.188C1746.95 464.992 1746.61 465.797 1746.21 466.545C1746.03 466.89 1745.8 467.292 1745.63 467.638L1745.57 467.695C1745.34 468.04 1745.17 468.385 1744.94 468.73L1737.35 469.938L1733.61 464.993L1735.85 455.965L1743.67 453.378L1748.33 459.012C1748.27 459.875 1748.16 460.737 1747.99 461.6Z" fill="#35236D" fill-opacity="0.1"/>
<path d="M211 675C191.662 675 176 690.662 176 710C176 729.338 191.662 745 211 745C230.338 745 246 729.338 246 710C246 690.662 230.338 675 211 675ZM212.225 685.062L224.388 680.25C225.787 680.863 227.1 681.562 228.413 682.438C229.638 683.225 230.862 684.1 232 685.062L232.087 685.15C232.612 685.588 233.138 686.025 233.575 686.463C233.663 686.55 233.662 686.55 233.75 686.637C234.275 687.163 234.712 687.6 235.237 688.125C235.237 688.212 235.325 688.212 235.325 688.3C235.763 688.738 236.112 689.262 236.55 689.7C236.637 689.787 236.725 689.963 236.812 690.05C237.25 690.575 237.6 691.188 238.038 691.712L235.675 702.125L223.775 706.062L212.225 696.875V685.062ZM185.1 690.137C185.188 690.05 185.275 689.875 185.363 689.787C185.712 689.262 186.15 688.825 186.588 688.387C186.675 688.3 186.675 688.3 186.675 688.213C187.113 687.688 187.637 687.162 188.162 686.725C188.25 686.637 188.25 686.637 188.338 686.55C188.775 686.113 189.3 685.675 189.825 685.238L189.912 685.15C191.05 684.188 192.275 683.312 193.5 682.525H193.587C194.9 681.738 196.212 681.037 197.525 680.338L209.775 685.15V696.875L198.225 706.062L186.325 702.125L183.875 691.8C184.312 691.188 184.662 690.662 185.1 690.137ZM183.7 727.938C183.35 727.412 183 726.888 182.737 726.362L182.65 726.275C182.3 725.75 182.037 725.225 181.775 724.612C181.162 723.475 180.638 722.25 180.2 721.025C180.025 720.412 179.762 719.887 179.587 719.275L179.5 719.013C179.325 718.487 179.237 717.875 179.062 717.263C179.062 717.175 179.062 717.175 179.062 717.087C178.8 715.775 178.537 714.462 178.45 713.15L185.537 704.575L197.35 708.513L200.938 722.25L195.25 729.688L183.7 727.938ZM218.788 741.763C218.175 741.938 217.562 742.025 217.038 742.112C216.95 742.112 216.862 742.113 216.775 742.2C216.25 742.288 215.725 742.375 215.2 742.463C215.025 742.463 214.938 742.462 214.763 742.55C214.325 742.637 213.8 742.638 213.275 742.725C213.1 742.725 213.012 742.725 212.837 742.725C212.225 742.725 211.612 742.812 211 742.812C210.388 742.812 209.862 742.812 209.25 742.725C209.162 742.725 209.075 742.725 209.075 742.725C208.55 742.725 208.025 742.638 207.587 742.638H207.5C206.362 742.55 205.312 742.375 204.175 742.112L197.262 731.35L202.863 723.913H219.138L224.825 731.35L218.788 741.763ZM242.938 717C242.938 717.088 242.938 717.088 242.938 717.175C242.85 717.788 242.675 718.312 242.5 718.925L242.412 719.188C242.238 719.8 242.062 720.412 241.8 720.938C241.362 722.162 240.838 723.387 240.225 724.525C239.963 725.05 239.613 725.662 239.35 726.188L239.263 726.275C238.913 726.8 238.65 727.325 238.3 727.85L226.75 729.688L221.062 722.163L224.475 708.425L236.375 704.488L243.463 713.062C243.375 714.375 243.2 715.688 242.938 717Z" fill="#35236D" fill-opacity="0.1"/>
<path d="M1419 111C1389.72 111 1366 134.718 1366 164C1366 193.283 1389.72 217 1419 217C1448.28 217 1472 193.283 1472 164C1472 134.718 1448.28 111 1419 111ZM1420.86 126.238L1439.27 118.95C1441.39 119.878 1443.38 120.938 1445.37 122.263C1447.22 123.455 1449.08 124.78 1450.8 126.238L1450.93 126.37C1451.73 127.033 1452.52 127.695 1453.19 128.358C1453.32 128.49 1453.32 128.49 1453.45 128.623C1454.25 129.418 1454.91 130.08 1455.7 130.875C1455.7 131.008 1455.84 131.007 1455.84 131.14C1456.5 131.802 1457.03 132.597 1457.69 133.26C1457.82 133.392 1457.96 133.658 1458.09 133.79C1458.75 134.585 1459.28 135.513 1459.94 136.308L1456.36 152.075L1438.35 158.038L1420.86 144.125V126.238ZM1379.78 133.923C1379.91 133.79 1380.05 133.525 1380.18 133.392C1380.71 132.597 1381.37 131.935 1382.03 131.273C1382.17 131.14 1382.17 131.14 1382.17 131.008C1382.83 130.213 1383.62 129.417 1384.42 128.755C1384.55 128.622 1384.55 128.622 1384.68 128.49C1385.35 127.828 1386.14 127.165 1386.94 126.503L1387.07 126.37C1388.79 124.913 1390.65 123.588 1392.5 122.395H1392.63C1394.62 121.203 1396.61 120.142 1398.6 119.083L1417.15 126.37V144.125L1399.66 158.038L1381.64 152.075L1377.93 136.44C1378.59 135.513 1379.12 134.718 1379.78 133.923ZM1377.66 191.163C1377.13 190.368 1376.6 189.573 1376.2 188.778L1376.07 188.645C1375.54 187.85 1375.14 187.055 1374.74 186.128C1373.82 184.405 1373.02 182.55 1372.36 180.695C1372.1 179.768 1371.7 178.973 1371.43 178.045L1371.3 177.647C1371.04 176.853 1370.9 175.925 1370.64 174.998C1370.64 174.865 1370.64 174.865 1370.64 174.733C1370.24 172.745 1369.84 170.757 1369.71 168.77L1380.44 155.785L1398.33 161.748L1403.76 182.55L1395.15 193.812L1377.66 191.163ZM1430.79 212.098C1429.87 212.363 1428.94 212.495 1428.14 212.628C1428.01 212.628 1427.88 212.628 1427.74 212.76C1426.95 212.893 1426.16 213.025 1425.36 213.158C1425.1 213.158 1424.96 213.158 1424.7 213.29C1424.03 213.423 1423.24 213.423 1422.44 213.555C1422.18 213.555 1422.05 213.555 1421.78 213.555C1420.85 213.555 1419.93 213.688 1419 213.688C1418.07 213.688 1417.28 213.688 1416.35 213.555C1416.22 213.555 1416.08 213.555 1416.08 213.555C1415.29 213.555 1414.49 213.423 1413.83 213.423H1413.7C1411.98 213.29 1410.39 213.025 1408.67 212.628L1398.2 196.33L1406.68 185.068H1431.32L1439.94 196.33L1430.79 212.098ZM1467.36 174.6C1467.36 174.733 1467.36 174.733 1467.36 174.865C1467.23 175.793 1466.97 176.588 1466.7 177.515L1466.57 177.913C1466.3 178.84 1466.04 179.768 1465.64 180.562C1464.98 182.418 1464.18 184.272 1463.26 185.995C1462.86 186.79 1462.33 187.718 1461.93 188.513L1461.8 188.645C1461.27 189.44 1460.87 190.235 1460.34 191.03L1442.85 193.812L1434.24 182.418L1439.41 161.615L1457.43 155.653L1468.16 168.638C1468.03 170.625 1467.76 172.613 1467.36 174.6Z" fill="#35236D" fill-opacity="0.1"/>
<path d="M539 180C516.9 180 499 197.9 499 220C499 242.1 516.9 260 539 260C561.1 260 579 242.1 579 220C579 197.9 561.1 180 539 180ZM540.4 191.5L554.3 186C555.9 186.7 557.4 187.5 558.9 188.5C560.3 189.4 561.7 190.4 563 191.5L563.1 191.6C563.7 192.1 564.3 192.6 564.8 193.1C564.9 193.2 564.9 193.2 565 193.3C565.6 193.9 566.1 194.4 566.7 195C566.7 195.1 566.8 195.1 566.8 195.2C567.3 195.7 567.7 196.3 568.2 196.8C568.3 196.9 568.4 197.1 568.5 197.2C569 197.8 569.4 198.5 569.9 199.1L567.2 211L553.6 215.5L540.4 205V191.5ZM509.4 197.3C509.5 197.2 509.6 197 509.7 196.9C510.1 196.3 510.6 195.8 511.1 195.3C511.2 195.2 511.2 195.2 511.2 195.1C511.7 194.5 512.3 193.9 512.9 193.4C513 193.3 513 193.3 513.1 193.2C513.6 192.7 514.2 192.2 514.8 191.7L514.9 191.6C516.2 190.5 517.6 189.5 519 188.6H519.1C520.6 187.7 522.1 186.9 523.6 186.1L537.6 191.6V205L524.4 215.5L510.8 211L508 199.2C508.5 198.5 508.9 197.9 509.4 197.3ZM507.8 240.5C507.4 239.9 507 239.3 506.7 238.7L506.6 238.6C506.2 238 505.9 237.4 505.6 236.7C504.9 235.4 504.3 234 503.8 232.6C503.6 231.9 503.3 231.3 503.1 230.6L503 230.3C502.8 229.7 502.7 229 502.5 228.3C502.5 228.2 502.5 228.2 502.5 228.1C502.2 226.6 501.9 225.1 501.8 223.6L509.9 213.8L523.4 218.3L527.5 234L521 242.5L507.8 240.5ZM547.9 256.3C547.2 256.5 546.5 256.6 545.9 256.7C545.8 256.7 545.7 256.7 545.6 256.8C545 256.9 544.4 257 543.8 257.1C543.6 257.1 543.5 257.1 543.3 257.2C542.8 257.3 542.2 257.3 541.6 257.4C541.4 257.4 541.3 257.4 541.1 257.4C540.4 257.4 539.7 257.5 539 257.5C538.3 257.5 537.7 257.5 537 257.4C536.9 257.4 536.8 257.4 536.8 257.4C536.2 257.4 535.6 257.3 535.1 257.3H535C533.7 257.2 532.5 257 531.2 256.7L523.3 244.4L529.7 235.9H548.3L554.8 244.4L547.9 256.3ZM575.5 228C575.5 228.1 575.5 228.1 575.5 228.2C575.4 228.9 575.2 229.5 575 230.2L574.9 230.5C574.7 231.2 574.5 231.9 574.2 232.5C573.7 233.9 573.1 235.3 572.4 236.6C572.1 237.2 571.7 237.9 571.4 238.5L571.3 238.6C570.9 239.2 570.6 239.8 570.2 240.4L557 242.5L550.5 233.9L554.4 218.2L568 213.7L576.1 223.5C576 225 575.8 226.5 575.5 228Z" fill="#35236D" fill-opacity="0.1"/>
</svg>
