<svg width="80" height="80" viewBox="0 0 80 80" fill="none" xmlns="http://www.w3.org/2000/svg">
<g clip-path="url(#clip0)">
<path d="M41.0999 40.7C40.7999 40.4 40.3999 40.2 39.9999 40.2C39.5999 40.2 39.1999 40.4 38.8999 40.7C38.5999 41 38.3999 41.4 38.3999 41.8C38.3999 42.2 38.5999 42.6 38.8999 42.9C39.1999 43.2 39.5999 43.4 39.9999 43.4C40.3999 43.4 40.7999 43.2 41.0999 42.9C41.3999 42.6 41.5999 42.2 41.5999 41.8C41.4999 41.4 41.3999 41 41.0999 40.7Z" fill="#35236D"/>
<path d="M54 22.4L68.7 37.1C69 37.4 69.4 37.6 69.8 37.6H78.4C79.3 37.6 80 36.9 80 36C80 35.1 79.3 34.4 78.4 34.4H77.7C79.1 33 80 31 80 28.9C80 24.5 76.4 20.8 71.9 20.8C67.8 20.8 64.4 23.9 63.9 27.9L56.2 20.2C54.9 18.9 52.9 18.5 51.3 19.1L62.3 8C64.1 6.2 64.1 3.2 62.3 1.4C60.5 -0.399997 57.5 -0.399997 55.7 1.4L48 9.1C47.5 5.1 44.1 2 40 2C35.9 2 32.5 5.1 32 9.1L24.3 1.4C22.5 -0.399997 19.5 -0.399997 17.7 1.4C15.9 3.2 15.9 6.2 17.7 8L28.8 19.1C27.1 18.5 25.2 18.8 23.9 20.2L16.2 27.9C15.7 23.9 12.3 20.8 8.2 20.8C3.8 20.8 0.1 24.4 0.1 28.9C0 31 0.9 33 2.2 34.5H1.6C0.7 34.5 0 35.2 0 36C0 36.9 0.7 37.6 1.6 37.6H10.2C10.6 37.6 11 37.4 11.3 37.1L26 22.4C26.6 21.8 27.6 21.8 28.2 22.4C28.8 23 28.8 24 28.2 24.6L15.3 37.5C15 37.8 14.8 38.2 14.8 38.6V52H8.1C7.2 52 6.5 52.7 6.5 53.6C6.5 54.5 7.2 55.2 8.1 55.2H14.9V64.5H9.6V60.9C9.6 60 8.9 59.3 8 59.3C7.1 59.3 6.4 60 6.4 60.9V64.5H1.6C0.7 64.4 0 65.1 0 66C0 66.9 0.7 67.6 1.6 67.6H6.5V78.5C6.5 79.4 7.2 80.1 8.1 80.1C9 80.1 9.7 79.4 9.7 78.5V67.5H14.9V78.4C14.9 79.3 15.6 80 16.5 80C17.4 80 18.1 79.3 18.1 78.4V66V53.5V51.8L30.2 63.9V78.1C30.2 79 30.9 79.7 31.8 79.7H48.5C49.4 79.7 50.1 79 50.1 78.1V63.9L62 51.8V53.5V65.9V78.3C62 79.2 62.7 79.9 63.6 79.9C64.5 79.9 65.2 79.2 65.2 78.3V67.5H70.4V78.4C70.4 79.3 71.1 80 72 80C72.9 80 73.6 79.3 73.6 78.4V67.5H78.5C79.4 67.5 80.1 66.8 80.1 65.9C80.1 65 79.4 64.3 78.5 64.3H73.6V60.7C73.6 59.8 72.9 59.1 72 59.1C71.1 59.1 70.4 59.8 70.4 60.7V64.3H65.2V55H78.5C79.4 55 80.1 54.3 80.1 53.4C80.1 52.5 79.3 52 78.4 52H65.1V38.6C65.1 38.2 64.9 37.8 64.6 37.5L51.7 24.6C51.1 24 51.1 23 51.7 22.4C52.4 21.8 53.3 21.8 54 22.4ZM71.9 23.9C74.6 23.9 76.8 26.1 76.8 28.8C76.8 31.5 74.6 33.7 71.9 33.7C69.2 33.7 67 31.5 67 28.8C67 26.2 69.2 23.9 71.9 23.9ZM8.1 33.8C5.4 33.8 3.2 31.6 3.2 28.9C3.2 26.2 5.4 24 8.1 24C10.8 24 13 26.2 13 28.9C13 31.6 10.8 33.8 8.1 33.8ZM40 5.1C42.7 5.1 44.9 7.3 44.9 10C44.9 12.7 42.7 14.9 40 14.9C37.3 14.9 35 12.8 35 10.1C35 7.3 37.3 5.1 40 5.1ZM19.8 5.8C19.2 5.2 19.2 4.2 19.8 3.6C20.4 3 21.4 3 22 3.6L36.7 18.3C37 18.6 37.4 18.8 37.8 18.8H42.1C42.5 18.8 42.9 18.6 43.2 18.3L57.9 3.6C58.5 3 59.5 3 60.1 3.6C60.7 4.2 60.7 5.2 60.1 5.8L47.2 18.7C46.9 19 46.7 19.4 46.7 19.8V33.1H33.2V19.8C33.2 19.4 33 19 32.7 18.7L19.8 5.8ZM60.1 49.2L47.2 62.1C46.9 62.4 46.7 62.8 46.7 63.2V76.5H33.2V63.2C33.2 62.8 33 62.4 32.7 62.1L19.8 49.2C19.2 48.6 19.2 47.6 19.8 47C20.4 46.4 21.4 46.4 22 47L36.7 61.7C37 62 37.4 62.2 37.8 62.2H42.1C42.5 62.2 42.9 62 43.2 61.7L57.9 47C58.5 46.4 59.5 46.4 60.1 47C60.7 47.6 60.7 48.6 60.1 49.2ZM35 53.5C35 50.8 37.2 48.6 39.9 48.6C42.6 48.6 44.8 50.8 44.8 53.5C44.8 56.2 42.6 58.4 39.9 58.4C37.2 58.4 35 56.2 35 53.5ZM62 39.3V44.5C60.2 43 57.4 43.1 55.7 44.8L48 52.5C47.5 48.5 44.1 45.4 40 45.4C35.9 45.4 32.5 48.5 32 52.5L24.3 44.8C22.6 43.1 19.9 43 18 44.5V39.3L30.1 27.2V34.7V44.4C30.1 45.3 30.8 46 31.7 46C32.6 46 33.3 45.3 33.3 44.4V36.2H46.9V44.4C46.9 45.3 47.6 46 48.5 46C49.4 46 50.1 45.3 50.1 44.4V34.7V27.2L62 39.3Z" fill="#35236D"/>
<path d="M4.39995 52.4C4.09995 52.1 3.69995 52 3.29995 52C2.89995 52 2.49995 52.2 2.19995 52.5C1.89995 52.8 1.69995 53.2 1.69995 53.6C1.69995 54 1.89995 54.4 2.19995 54.7C2.49995 55 2.89995 55.2 3.29995 55.2C3.69995 55.2 4.09995 55 4.39995 54.7C4.69995 54.4 4.89995 54 4.89995 53.6C4.79995 53.1 4.69995 52.7 4.39995 52.4Z" fill="#35236D"/>
</g>
<defs>
<clipPath id="clip0">
<rect width="80" height="80" fill="white"/>
</clipPath>
</defs>
</svg>
