<svg width="66" height="80" viewBox="0 0 66 80" fill="none" xmlns="http://www.w3.org/2000/svg">
<g clip-path="url(#clip0)">
<path d="M64.8001 32.4C64.5001 32.1 64.1001 31.9 63.7001 31.9C63.3001 31.9 62.9001 32.1 62.6001 32.4C62.3001 32.7 62.1001 33.1 62.1001 33.5C62.1001 33.9 62.3001 34.3 62.6001 34.6C62.9001 34.9 63.3001 35.1 63.7001 35.1C64.1001 35.1 64.5001 34.9 64.8001 34.6C65.1001 34.3 65.3001 33.9 65.3001 33.5C65.3001 33.1 65.1001 32.7 64.8001 32.4Z" fill="#35236D"/>
<path d="M63.7 27.5C64.6 27.5 65.3 26.8 65.3 25.9V1.6C65.3 0.7 64.6 0 63.7 0H25.2C24.3 0 23.6 0.7 23.6 1.6V16.8H1.6C0.7 16.8 0 17.5 0 18.4V78.6C0 79.3 0.7 80 1.6 80H40C40.9 80 41.6 79.3 41.6 78.4V63.3H63.7C64.6 63.3 65.3 62.6 65.3 61.7V40.9C65.3 40 64.6 39.3 63.7 39.3C62.8 39.3 62.1 40 62.1 40.9V60.1H41.6V18.3C41.6 17.4 40.9 16.7 40 16.7H26.8V3.1H62.1V25.9C62.1 26.8 62.8 27.5 63.7 27.5ZM38.5 19.8V61.7V76.9H3.1V19.9H6.2V33.6C6.2 34.5 6.9 35.2 7.8 35.2C8.7 35.2 9.4 34.5 9.4 33.6V19.8H38.5Z" fill="#35236D"/>
<path d="M8.89995 37.8C8.59995 37.5 8.19995 37.3 7.79995 37.3C7.39995 37.3 6.99995 37.5 6.69995 37.8C6.39995 38.1 6.19995 38.5 6.19995 38.9C6.19995 39.3 6.39995 39.7 6.69995 40C6.99995 40.3 7.39995 40.5 7.79995 40.5C8.19995 40.5 8.59995 40.3 8.89995 40C9.19995 39.7 9.39995 39.3 9.39995 38.9C9.39995 38.5 9.19995 38.1 8.89995 37.8Z" fill="#35236D"/>
</g>
<defs>
<clipPath id="clip0">
<rect width="65.3" height="80" fill="white"/>
</clipPath>
</defs>
</svg>
