<svg width="107" height="50" viewBox="0 0 107 50" fill="none" xmlns="http://www.w3.org/2000/svg">
<path d="M96.1649 37.1334C95.6773 36.3734 94.7021 35.5591 94.2687 35.1247C93.7811 34.2561 92.3183 30.4559 89.8262 26.3843C87.2799 22.204 82.729 18.4581 81.8622 17.1552C81.0495 15.9608 80.1827 12.3235 76.4986 8.74041C72.4895 4.88591 62.6293 1.84574 60.5164 2.98581C59.4329 3.58298 56.2906 7.81751 54.9362 9.2833C51.0354 9.82619 42.4754 11.8892 35.2157 15.7437C31.4775 14.8208 29.0395 14.8208 24.8137 15.2008C24.8679 14.6036 25.0846 13.8436 25.1929 13.1921C25.3013 12.5406 26.1681 9.50046 26.1681 9.50046H24.9762C24.9762 9.50046 23.5676 14.0607 23.6218 15.9608C23.6218 15.9608 20.5879 18.2409 18.1499 21.824C15.8745 25.1356 14.4117 27.9043 13.7074 30.1845C11.5945 30.6188 9.86082 32.0846 9.86082 32.0846L9.80664 33.1703C9.80664 33.1703 11.2152 32.2474 11.7028 32.0303C12.0821 31.8674 13.1656 31.3788 13.4907 31.2702C13.4365 33.1703 15.2785 37.0791 15.2785 37.0791L24.6512 37.1334C25.6264 36.2648 29.9605 33.4961 32.1818 32.7903L38.1413 37.0791H39.8207L32.6694 31.9217C32.8861 30.3473 33.3737 26.2757 33.6446 24.7556C34.0238 22.8555 35.7033 16.7751 35.7033 16.7751C37.1661 16.0694 41.121 14.2236 44.805 12.9206C47.6764 11.8892 51.7939 10.7491 55.3154 10.2605C58.4577 11.7806 60.083 12.6492 62.846 14.5493C65.8257 16.558 69.0764 18.4581 69.2389 19.4353C69.5098 21.0097 68.5346 26.6014 68.2095 28.7187C67.7761 31.8131 66.6384 37.0248 66.6384 37.0248L67.7761 37.0791C67.7761 37.0791 68.9138 30.8359 69.2389 28.7187C69.5098 26.8186 70.2141 21.444 70.7559 19.761C70.9726 19.1096 80.7786 18.0781 81.6455 18.7838C82.1872 19.2181 86.6297 23.2355 88.5801 26.5471C90.5847 29.913 92.1016 32.2474 93.4561 35.9391C93.5102 36.0476 93.5102 37.1877 93.5102 37.1877L96.1649 37.1334Z" fill="white"/>
<path d="M9.04757 36.5906C14.0319 16.6666 32.0728 1.84582 53.4728 1.84582C74.8727 1.84582 92.9137 16.6666 97.898 36.5906H99.7942C94.7557 15.6352 75.9021 0 53.4728 0C30.9893 0 12.1898 15.6352 7.15137 36.5906H9.04757Z" fill="white"/>
<path d="M8.61416 45.4389C8.93922 45.8732 9.10175 46.4161 9.10175 47.0676C9.10175 47.9362 8.77669 48.642 8.07239 49.1306C7.36808 49.6192 6.3929 49.8363 5.09265 49.8363H0V39.5757H4.82176C6.01366 39.5757 6.98884 39.7929 7.63897 40.2815C8.28909 40.7701 8.61416 41.4216 8.61416 42.2359C8.61416 42.7245 8.5058 43.2131 8.28909 43.5931C8.07239 43.9731 7.74732 44.2989 7.31391 44.516C7.8015 44.6789 8.28909 45.0046 8.61416 45.4389ZM1.8962 41.0958V43.9188H4.60505C5.25518 43.9188 5.79695 43.8103 6.12201 43.5388C6.50125 43.3217 6.66378 42.9416 6.66378 42.5073C6.66378 42.0187 6.50125 41.693 6.12201 41.4216C5.74277 41.2044 5.25518 41.0415 4.60505 41.0415H1.8962V41.0958ZM7.20555 46.8504C7.20555 45.8732 6.44707 45.3846 4.98429 45.3846H1.8962V48.3705H4.98429C6.44707 48.3705 7.20555 47.8819 7.20555 46.8504Z" fill="white"/>
<path d="M19.5574 48.2619V49.8363H11.8643V39.5757H19.3407V41.1501H13.7605V43.8102H18.6906V45.3846H13.7605V48.2076H19.5574V48.2619Z" fill="white"/>
<path d="M24.4874 41.2043H21.0742V39.5757H29.7426V41.2043H26.3294V49.8363H24.4332V41.2043H24.4874Z" fill="white"/>
<path d="M41.3385 49.8363V43.0502L37.9795 48.6962H37.1126L33.7537 43.1587V49.8905H31.9658V39.5757H33.537L37.6002 46.3618L41.6093 39.5757H43.1805V49.8363H41.3385Z" fill="white"/>
<path d="M46.6455 39.5757H48.5417V49.8363H46.6455V39.5757Z" fill="white"/>
<path d="M61.1115 39.5757V49.8363H59.5404L53.906 42.8873V49.8363H52.0098V39.5757H53.5809L59.2153 46.5246V39.5757H61.1115Z" fill="white"/>
<path d="M71.2428 47.5026H66.096L65.0666 49.8913H63.1162L67.7213 39.6307H69.6175L74.2225 49.8913H72.218L71.2428 47.5026ZM70.6468 45.9825L68.6965 41.4766L66.8003 45.9825H70.6468Z" fill="white"/>
<path d="M77.8526 41.2043H74.4395V39.5757H83.1078V41.2043H79.6946V49.8363H77.7984V41.2043H77.8526Z" fill="white"/>
<path d="M87.1166 49.2942C86.3039 48.8599 85.5996 48.2084 85.1662 47.3941C84.6786 46.5798 84.4619 45.7112 84.4619 44.6797C84.4619 43.6482 84.6786 42.7796 85.1662 41.9652C85.6538 41.1509 86.3039 40.5537 87.1166 40.0651C87.9293 39.6308 88.9044 39.3594 89.9338 39.3594C90.9632 39.3594 91.9384 39.5765 92.751 40.0651C93.5637 40.4994 94.268 41.1509 94.7014 41.9652C95.189 42.7796 95.4057 43.6482 95.4057 44.6797C95.4057 45.7112 95.189 46.5798 94.7014 47.3941C94.2138 48.2084 93.5637 48.8056 92.751 49.2942C91.9384 49.7285 90.9632 50 89.9338 50C88.9044 50 87.9834 49.7828 87.1166 49.2942ZM91.7758 47.8827C92.3176 47.557 92.751 47.1227 93.0761 46.5798C93.4011 46.0369 93.5637 45.3854 93.5637 44.734C93.5637 44.0282 93.4011 43.431 93.0761 42.8881C92.751 42.3453 92.3176 41.9109 91.7758 41.5852C91.234 41.2595 90.6381 41.0966 89.9338 41.0966C89.2295 41.0966 88.6336 41.2595 88.0918 41.5852C87.55 41.9109 87.1166 42.3453 86.7915 42.8881C86.4665 43.431 86.3039 44.0825 86.3039 44.734C86.3039 45.4397 86.4665 46.0369 86.7915 46.5798C87.1166 47.1227 87.55 47.557 88.0918 47.8827C88.6336 48.2084 89.2295 48.3713 89.9338 48.3713C90.6381 48.317 91.234 48.1541 91.7758 47.8827Z" fill="white"/>
<path d="M104.942 49.8363L102.829 46.8504C102.72 46.8504 102.612 46.8504 102.449 46.8504H100.12V49.8363H98.2236V39.5757H102.449C103.316 39.5757 104.129 39.7385 104.779 40.01C105.429 40.2814 105.917 40.7157 106.296 41.2586C106.621 41.8015 106.838 42.453 106.838 43.213C106.838 43.9731 106.675 44.6245 106.296 45.2217C105.917 45.8189 105.375 46.1989 104.671 46.4704L107 49.8363H104.942ZM104.237 41.7472C103.804 41.4215 103.154 41.2043 102.341 41.2043H100.12V45.276H102.341C103.154 45.276 103.804 45.1131 104.237 44.7331C104.671 44.3531 104.887 43.8645 104.887 43.213C104.887 42.5616 104.671 42.073 104.237 41.7472Z" fill="white"/>
</svg>
