<svg width="1747" height="834" viewBox="0 0 1747 834" fill="none" xmlns="http://www.w3.org/2000/svg">
<path d="M1379 694C1366.85 694 1357 703.845 1357 716C1357 728.155 1366.85 738 1379 738C1391.16 738 1401 728.155 1401 716C1401 703.845 1391.16 694 1379 694ZM1379.77 700.325L1387.42 697.3C1388.3 697.685 1389.12 698.125 1389.95 698.675C1390.72 699.17 1391.49 699.72 1392.2 700.325L1392.25 700.38C1392.58 700.655 1392.92 700.93 1393.19 701.205C1393.25 701.26 1393.25 701.26 1393.3 701.315C1393.63 701.645 1393.9 701.92 1394.23 702.25C1394.23 702.305 1394.29 702.305 1394.29 702.36C1394.57 702.635 1394.78 702.965 1395.06 703.24C1395.11 703.295 1395.17 703.405 1395.23 703.46C1395.5 703.79 1395.72 704.175 1396 704.505L1394.51 711.05L1387.03 713.525L1379.77 707.75V700.325ZM1362.72 703.515C1362.77 703.46 1362.83 703.35 1362.89 703.295C1363.11 702.965 1363.38 702.69 1363.66 702.415C1363.71 702.36 1363.71 702.36 1363.71 702.305C1363.99 701.975 1364.31 701.645 1364.64 701.37C1364.7 701.315 1364.7 701.315 1364.76 701.26C1365.03 700.985 1365.36 700.71 1365.69 700.435L1365.74 700.38C1366.46 699.775 1367.23 699.225 1368 698.73H1368.06C1368.88 698.235 1369.71 697.795 1370.53 697.355L1378.23 700.38V707.75L1370.97 713.525L1363.49 711.05L1361.95 704.56C1362.23 704.175 1362.44 703.845 1362.72 703.515ZM1361.84 727.275C1361.62 726.945 1361.4 726.615 1361.23 726.285L1361.18 726.23C1360.96 725.9 1360.8 725.57 1360.63 725.185C1360.25 724.47 1359.92 723.7 1359.64 722.93C1359.53 722.545 1359.37 722.215 1359.25 721.83L1359.2 721.665C1359.09 721.335 1359.04 720.95 1358.93 720.565C1358.93 720.51 1358.93 720.51 1358.93 720.455C1358.76 719.63 1358.6 718.805 1358.54 717.98L1362.99 712.59L1370.42 715.065L1372.68 723.7L1369.1 728.375L1361.84 727.275ZM1383.9 735.965C1383.51 736.075 1383.13 736.13 1382.8 736.185C1382.74 736.185 1382.68 736.185 1382.63 736.24C1382.3 736.295 1381.97 736.35 1381.64 736.405C1381.53 736.405 1381.48 736.405 1381.37 736.46C1381.09 736.515 1380.76 736.515 1380.43 736.57C1380.32 736.57 1380.26 736.57 1380.15 736.57C1379.77 736.57 1379.39 736.625 1379 736.625C1378.62 736.625 1378.29 736.625 1377.9 736.57C1377.85 736.57 1377.79 736.57 1377.79 736.57C1377.46 736.57 1377.13 736.515 1376.85 736.515H1376.8C1376.09 736.46 1375.43 736.35 1374.71 736.185L1370.36 729.42L1373.89 724.745H1384.12L1387.69 729.42L1383.9 735.965ZM1399.08 720.4C1399.08 720.455 1399.08 720.455 1399.08 720.51C1399.02 720.895 1398.91 721.225 1398.8 721.61L1398.75 721.775C1398.64 722.16 1398.52 722.545 1398.36 722.875C1398.08 723.645 1397.76 724.415 1397.37 725.13C1397.21 725.46 1396.99 725.845 1396.82 726.175L1396.77 726.23C1396.55 726.56 1396.38 726.89 1396.16 727.22L1388.9 728.375L1385.33 723.645L1387.47 715.01L1394.95 712.535L1399.41 717.925C1399.35 718.75 1399.24 719.575 1399.08 720.4Z" fill="#35236D" fill-opacity="0.08"/>
<path d="M1503 360C1490.85 360 1481 369.845 1481 382C1481 394.155 1490.85 404 1503 404C1515.16 404 1525 394.155 1525 382C1525 369.845 1515.16 360 1503 360ZM1503.77 366.325L1511.42 363.3C1512.3 363.685 1513.12 364.125 1513.95 364.675C1514.72 365.17 1515.49 365.72 1516.2 366.325L1516.25 366.38C1516.58 366.655 1516.92 366.93 1517.19 367.205C1517.25 367.26 1517.25 367.26 1517.3 367.315C1517.63 367.645 1517.9 367.92 1518.23 368.25C1518.23 368.305 1518.29 368.305 1518.29 368.36C1518.57 368.635 1518.78 368.965 1519.06 369.24C1519.11 369.295 1519.17 369.405 1519.23 369.46C1519.5 369.79 1519.72 370.175 1520 370.505L1518.51 377.05L1511.03 379.525L1503.77 373.75V366.325ZM1486.72 369.515C1486.77 369.46 1486.83 369.35 1486.89 369.295C1487.11 368.965 1487.38 368.69 1487.66 368.415C1487.71 368.36 1487.71 368.36 1487.71 368.305C1487.99 367.975 1488.31 367.645 1488.64 367.37C1488.7 367.315 1488.7 367.315 1488.76 367.26C1489.03 366.985 1489.36 366.71 1489.69 366.435L1489.74 366.38C1490.46 365.775 1491.23 365.225 1492 364.73H1492.06C1492.88 364.235 1493.71 363.795 1494.53 363.355L1502.23 366.38V373.75L1494.97 379.525L1487.49 377.05L1485.95 370.56C1486.23 370.175 1486.44 369.845 1486.72 369.515ZM1485.84 393.275C1485.62 392.945 1485.4 392.615 1485.23 392.285L1485.18 392.23C1484.96 391.9 1484.8 391.57 1484.63 391.185C1484.25 390.47 1483.92 389.7 1483.64 388.93C1483.53 388.545 1483.37 388.215 1483.25 387.83L1483.2 387.665C1483.09 387.335 1483.04 386.95 1482.93 386.565C1482.93 386.51 1482.93 386.51 1482.93 386.455C1482.76 385.63 1482.6 384.805 1482.54 383.98L1486.99 378.59L1494.42 381.065L1496.68 389.7L1493.1 394.375L1485.84 393.275ZM1507.9 401.965C1507.51 402.075 1507.13 402.13 1506.8 402.185C1506.74 402.185 1506.68 402.185 1506.63 402.24C1506.3 402.295 1505.97 402.35 1505.64 402.405C1505.53 402.405 1505.48 402.405 1505.37 402.46C1505.09 402.515 1504.76 402.515 1504.43 402.57C1504.32 402.57 1504.26 402.57 1504.15 402.57C1503.77 402.57 1503.39 402.625 1503 402.625C1502.62 402.625 1502.29 402.625 1501.9 402.57C1501.85 402.57 1501.79 402.57 1501.79 402.57C1501.46 402.57 1501.13 402.515 1500.85 402.515H1500.8C1500.09 402.46 1499.43 402.35 1498.71 402.185L1494.36 395.42L1497.89 390.745H1508.12L1511.69 395.42L1507.9 401.965ZM1523.08 386.4C1523.08 386.455 1523.08 386.455 1523.08 386.51C1523.02 386.895 1522.91 387.225 1522.8 387.61L1522.75 387.775C1522.64 388.16 1522.52 388.545 1522.36 388.875C1522.08 389.645 1521.76 390.415 1521.37 391.13C1521.21 391.46 1520.99 391.845 1520.82 392.175L1520.77 392.23C1520.55 392.56 1520.38 392.89 1520.16 393.22L1512.9 394.375L1509.33 389.645L1511.47 381.01L1518.95 378.535L1523.41 383.925C1523.35 384.75 1523.24 385.575 1523.08 386.4Z" fill="#35236D" fill-opacity="0.08"/>
<path d="M1423 0C1410.85 0 1401 9.845 1401 22C1401 34.155 1410.85 44 1423 44C1435.16 44 1445 34.155 1445 22C1445 9.845 1435.16 0 1423 0ZM1423.77 6.325L1431.42 3.3C1432.3 3.685 1433.12 4.125 1433.95 4.675C1434.72 5.17 1435.49 5.72 1436.2 6.325L1436.25 6.38C1436.58 6.655 1436.92 6.93 1437.19 7.205C1437.25 7.26 1437.25 7.26 1437.3 7.315C1437.63 7.645 1437.9 7.92 1438.23 8.25C1438.23 8.305 1438.29 8.305 1438.29 8.36C1438.57 8.635 1438.78 8.965 1439.06 9.24C1439.11 9.295 1439.17 9.405 1439.23 9.46C1439.5 9.79 1439.72 10.175 1440 10.505L1438.51 17.05L1431.03 19.525L1423.77 13.75V6.325ZM1406.72 9.515C1406.77 9.46 1406.83 9.35 1406.89 9.295C1407.11 8.965 1407.38 8.69 1407.66 8.415C1407.71 8.36 1407.71 8.36 1407.71 8.305C1407.99 7.975 1408.31 7.645 1408.64 7.37C1408.7 7.315 1408.7 7.315 1408.76 7.26C1409.03 6.985 1409.36 6.71 1409.69 6.435L1409.74 6.38C1410.46 5.775 1411.23 5.225 1412 4.73H1412.06C1412.88 4.235 1413.71 3.795 1414.53 3.355L1422.23 6.38V13.75L1414.97 19.525L1407.49 17.05L1405.95 10.56C1406.23 10.175 1406.44 9.845 1406.72 9.515ZM1405.84 33.275C1405.62 32.945 1405.4 32.615 1405.23 32.285L1405.18 32.23C1404.96 31.9 1404.8 31.57 1404.63 31.185C1404.25 30.47 1403.92 29.7 1403.64 28.93C1403.53 28.545 1403.37 28.215 1403.25 27.83L1403.2 27.665C1403.09 27.335 1403.04 26.95 1402.93 26.565C1402.93 26.51 1402.93 26.51 1402.93 26.455C1402.76 25.63 1402.6 24.805 1402.54 23.98L1406.99 18.59L1414.42 21.065L1416.68 29.7L1413.1 34.375L1405.84 33.275ZM1427.9 41.965C1427.51 42.075 1427.13 42.13 1426.8 42.185C1426.74 42.185 1426.68 42.185 1426.63 42.24C1426.3 42.295 1425.97 42.35 1425.64 42.405C1425.53 42.405 1425.48 42.405 1425.37 42.46C1425.09 42.515 1424.76 42.515 1424.43 42.57C1424.32 42.57 1424.26 42.57 1424.15 42.57C1423.77 42.57 1423.39 42.625 1423 42.625C1422.62 42.625 1422.29 42.625 1421.9 42.57C1421.85 42.57 1421.79 42.57 1421.79 42.57C1421.46 42.57 1421.13 42.515 1420.85 42.515H1420.8C1420.09 42.46 1419.43 42.35 1418.71 42.185L1414.36 35.42L1417.89 30.745H1428.12L1431.69 35.42L1427.9 41.965ZM1443.08 26.4C1443.08 26.455 1443.08 26.455 1443.08 26.51C1443.02 26.895 1442.91 27.225 1442.8 27.61L1442.75 27.775C1442.64 28.16 1442.52 28.545 1442.36 28.875C1442.08 29.645 1441.76 30.415 1441.37 31.13C1441.21 31.46 1440.99 31.845 1440.82 32.175L1440.77 32.23C1440.55 32.56 1440.38 32.89 1440.16 33.22L1432.9 34.375L1429.33 29.645L1431.47 21.01L1438.95 18.535L1443.41 23.925C1443.35 24.75 1443.24 25.575 1443.08 26.4Z" fill="#35236D" fill-opacity="0.08"/>
<path d="M156 122C143.845 122 134 131.845 134 144C134 156.155 143.845 166 156 166C168.155 166 178 156.155 178 144C178 131.845 168.155 122 156 122ZM156.77 128.325L164.415 125.3C165.295 125.685 166.12 126.125 166.945 126.675C167.715 127.17 168.485 127.72 169.2 128.325L169.255 128.38C169.585 128.655 169.915 128.93 170.19 129.205C170.245 129.26 170.245 129.26 170.3 129.315C170.63 129.645 170.905 129.92 171.235 130.25C171.235 130.305 171.29 130.305 171.29 130.36C171.565 130.635 171.785 130.965 172.06 131.24C172.115 131.295 172.17 131.405 172.225 131.46C172.5 131.79 172.72 132.175 172.995 132.505L171.51 139.05L164.03 141.525L156.77 135.75V128.325ZM139.72 131.515C139.775 131.46 139.83 131.35 139.885 131.295C140.105 130.965 140.38 130.69 140.655 130.415C140.71 130.36 140.71 130.36 140.71 130.305C140.985 129.975 141.315 129.645 141.645 129.37C141.7 129.315 141.7 129.315 141.755 129.26C142.03 128.985 142.36 128.71 142.69 128.435L142.745 128.38C143.46 127.775 144.23 127.225 145 126.73H145.055C145.88 126.235 146.705 125.795 147.53 125.355L155.23 128.38V135.75L147.97 141.525L140.49 139.05L138.95 132.56C139.225 132.175 139.445 131.845 139.72 131.515ZM138.84 155.275C138.62 154.945 138.4 154.615 138.235 154.285L138.18 154.23C137.96 153.9 137.795 153.57 137.63 153.185C137.245 152.47 136.915 151.7 136.64 150.93C136.53 150.545 136.365 150.215 136.255 149.83L136.2 149.665C136.09 149.335 136.035 148.95 135.925 148.565C135.925 148.51 135.925 148.51 135.925 148.455C135.76 147.63 135.595 146.805 135.54 145.98L139.995 140.59L147.42 143.065L149.675 151.7L146.1 156.375L138.84 155.275ZM160.895 163.965C160.51 164.075 160.125 164.13 159.795 164.185C159.74 164.185 159.685 164.185 159.63 164.24C159.3 164.295 158.97 164.35 158.64 164.405C158.53 164.405 158.475 164.405 158.365 164.46C158.09 164.515 157.76 164.515 157.43 164.57C157.32 164.57 157.265 164.57 157.155 164.57C156.77 164.57 156.385 164.625 156 164.625C155.615 164.625 155.285 164.625 154.9 164.57C154.845 164.57 154.79 164.57 154.79 164.57C154.46 164.57 154.13 164.515 153.855 164.515H153.8C153.085 164.46 152.425 164.35 151.71 164.185L147.365 157.42L150.885 152.745H161.115L164.69 157.42L160.895 163.965ZM176.075 148.4C176.075 148.455 176.075 148.455 176.075 148.51C176.02 148.895 175.91 149.225 175.8 149.61L175.745 149.775C175.635 150.16 175.525 150.545 175.36 150.875C175.085 151.645 174.755 152.415 174.37 153.13C174.205 153.46 173.985 153.845 173.82 154.175L173.765 154.23C173.545 154.56 173.38 154.89 173.16 155.22L165.9 156.375L162.325 151.645L164.47 143.01L171.95 140.535L176.405 145.925C176.35 146.75 176.24 147.575 176.075 148.4Z" fill="#35236D" fill-opacity="0.08"/>
<path d="M378 495C365.845 495 356 504.845 356 517C356 529.155 365.845 539 378 539C390.155 539 400 529.155 400 517C400 504.845 390.155 495 378 495ZM378.77 501.325L386.415 498.3C387.295 498.685 388.12 499.125 388.945 499.675C389.715 500.17 390.485 500.72 391.2 501.325L391.255 501.38C391.585 501.655 391.915 501.93 392.19 502.205C392.245 502.26 392.245 502.26 392.3 502.315C392.63 502.645 392.905 502.92 393.235 503.25C393.235 503.305 393.29 503.305 393.29 503.36C393.565 503.635 393.785 503.965 394.06 504.24C394.115 504.295 394.17 504.405 394.225 504.46C394.5 504.79 394.72 505.175 394.995 505.505L393.51 512.05L386.03 514.525L378.77 508.75V501.325ZM361.72 504.515C361.775 504.46 361.83 504.35 361.885 504.295C362.105 503.965 362.38 503.69 362.655 503.415C362.71 503.36 362.71 503.36 362.71 503.305C362.985 502.975 363.315 502.645 363.645 502.37C363.7 502.315 363.7 502.315 363.755 502.26C364.03 501.985 364.36 501.71 364.69 501.435L364.745 501.38C365.46 500.775 366.23 500.225 367 499.73H367.055C367.88 499.235 368.705 498.795 369.53 498.355L377.23 501.38V508.75L369.97 514.525L362.49 512.05L360.95 505.56C361.225 505.175 361.445 504.845 361.72 504.515ZM360.84 528.275C360.62 527.945 360.4 527.615 360.235 527.285L360.18 527.23C359.96 526.9 359.795 526.57 359.63 526.185C359.245 525.47 358.915 524.7 358.64 523.93C358.53 523.545 358.365 523.215 358.255 522.83L358.2 522.665C358.09 522.335 358.035 521.95 357.925 521.565C357.925 521.51 357.925 521.51 357.925 521.455C357.76 520.63 357.595 519.805 357.54 518.98L361.995 513.59L369.42 516.065L371.675 524.7L368.1 529.375L360.84 528.275ZM382.895 536.965C382.51 537.075 382.125 537.13 381.795 537.185C381.74 537.185 381.685 537.185 381.63 537.24C381.3 537.295 380.97 537.35 380.64 537.405C380.53 537.405 380.475 537.405 380.365 537.46C380.09 537.515 379.76 537.515 379.43 537.57C379.32 537.57 379.265 537.57 379.155 537.57C378.77 537.57 378.385 537.625 378 537.625C377.615 537.625 377.285 537.625 376.9 537.57C376.845 537.57 376.79 537.57 376.79 537.57C376.46 537.57 376.13 537.515 375.855 537.515H375.8C375.085 537.46 374.425 537.35 373.71 537.185L369.365 530.42L372.885 525.745H383.115L386.69 530.42L382.895 536.965ZM398.075 521.4C398.075 521.455 398.075 521.455 398.075 521.51C398.02 521.895 397.91 522.225 397.8 522.61L397.745 522.775C397.635 523.16 397.525 523.545 397.36 523.875C397.085 524.645 396.755 525.415 396.37 526.13C396.205 526.46 395.985 526.845 395.82 527.175L395.765 527.23C395.545 527.56 395.38 527.89 395.16 528.22L387.9 529.375L384.325 524.645L386.47 516.01L393.95 513.535L398.405 518.925C398.35 519.75 398.24 520.575 398.075 521.4Z" fill="#35236D" fill-opacity="0.08"/>
<path d="M15 368C6.7125 368 0 374.712 0 383C0 391.288 6.7125 398 15 398C23.2875 398 30 391.288 30 383C30 374.712 23.2875 368 15 368ZM15.525 372.312L20.7375 370.25C21.3375 370.512 21.9 370.812 22.4625 371.188C22.9875 371.525 23.5125 371.9 24 372.312L24.0375 372.35C24.2625 372.538 24.4875 372.725 24.675 372.913C24.7125 372.95 24.7125 372.95 24.75 372.988C24.975 373.213 25.1625 373.4 25.3875 373.625C25.3875 373.663 25.425 373.662 25.425 373.7C25.6125 373.887 25.7625 374.112 25.95 374.3C25.9875 374.337 26.025 374.413 26.0625 374.45C26.25 374.675 26.4 374.938 26.5875 375.163L25.575 379.625L20.475 381.312L15.525 377.375V372.312ZM3.9 374.487C3.9375 374.45 3.975 374.375 4.0125 374.337C4.1625 374.112 4.35 373.925 4.5375 373.738C4.575 373.7 4.575 373.7 4.575 373.663C4.7625 373.438 4.9875 373.212 5.2125 373.025C5.25 372.987 5.25 372.987 5.2875 372.95C5.475 372.762 5.7 372.575 5.925 372.387L5.9625 372.35C6.45 371.938 6.975 371.563 7.5 371.225H7.5375C8.1 370.888 8.6625 370.587 9.225 370.287L14.475 372.35V377.375L9.525 381.312L4.425 379.625L3.375 375.2C3.5625 374.938 3.7125 374.712 3.9 374.487ZM3.3 390.688C3.15 390.462 3 390.238 2.8875 390.013L2.85 389.975C2.7 389.75 2.5875 389.525 2.475 389.263C2.2125 388.775 1.9875 388.25 1.8 387.725C1.725 387.462 1.6125 387.237 1.5375 386.975L1.5 386.862C1.425 386.637 1.3875 386.375 1.3125 386.112C1.3125 386.075 1.3125 386.075 1.3125 386.037C1.2 385.475 1.0875 384.912 1.05 384.35L4.0875 380.675L9.15 382.362L10.6875 388.25L8.25 391.438L3.3 390.688ZM18.3375 396.613C18.075 396.688 17.8125 396.725 17.5875 396.762C17.55 396.762 17.5125 396.763 17.475 396.8C17.25 396.838 17.025 396.875 16.8 396.912C16.725 396.912 16.6875 396.912 16.6125 396.95C16.425 396.987 16.2 396.988 15.975 397.025C15.9 397.025 15.8625 397.025 15.7875 397.025C15.525 397.025 15.2625 397.062 15 397.062C14.7375 397.062 14.5125 397.063 14.25 397.025C14.2125 397.025 14.175 397.025 14.175 397.025C13.95 397.025 13.725 396.988 13.5375 396.988H13.5C13.0125 396.95 12.5625 396.875 12.075 396.762L9.1125 392.15L11.5125 388.963H18.4875L20.925 392.15L18.3375 396.613ZM28.6875 386C28.6875 386.038 28.6875 386.038 28.6875 386.075C28.65 386.338 28.575 386.563 28.5 386.825L28.4625 386.938C28.3875 387.2 28.3125 387.462 28.2 387.688C28.0125 388.212 27.7875 388.737 27.525 389.225C27.4125 389.45 27.2625 389.712 27.15 389.938L27.1125 389.975C26.9625 390.2 26.85 390.425 26.7 390.65L21.75 391.438L19.3125 388.213L20.775 382.325L25.875 380.638L28.9125 384.312C28.875 384.875 28.8 385.438 28.6875 386Z" fill="#35236D" fill-opacity="0.08"/>
<path d="M427 239C418.712 239 412 245.712 412 254C412 262.288 418.712 269 427 269C435.288 269 442 262.288 442 254C442 245.712 435.288 239 427 239ZM427.525 243.312L432.737 241.25C433.337 241.512 433.9 241.812 434.463 242.188C434.988 242.525 435.513 242.9 436 243.312L436.037 243.35C436.262 243.538 436.488 243.725 436.675 243.913C436.713 243.95 436.712 243.95 436.75 243.988C436.975 244.213 437.162 244.4 437.387 244.625C437.387 244.663 437.425 244.662 437.425 244.7C437.613 244.887 437.762 245.112 437.95 245.3C437.987 245.337 438.025 245.413 438.062 245.45C438.25 245.675 438.4 245.938 438.588 246.163L437.575 250.625L432.475 252.312L427.525 248.375V243.312ZM415.9 245.487C415.937 245.45 415.975 245.375 416.012 245.337C416.162 245.112 416.35 244.925 416.538 244.738C416.575 244.7 416.575 244.7 416.575 244.663C416.762 244.438 416.987 244.212 417.212 244.025C417.25 243.987 417.25 243.987 417.288 243.95C417.475 243.762 417.7 243.575 417.925 243.387L417.962 243.35C418.45 242.938 418.975 242.563 419.5 242.225H419.538C420.1 241.888 420.663 241.587 421.225 241.287L426.475 243.35V248.375L421.525 252.312L416.425 250.625L415.375 246.2C415.562 245.938 415.712 245.712 415.9 245.487ZM415.3 261.688C415.15 261.462 415 261.238 414.887 261.013L414.85 260.975C414.7 260.75 414.587 260.525 414.475 260.263C414.212 259.775 413.988 259.25 413.8 258.725C413.725 258.462 413.612 258.237 413.537 257.975L413.5 257.862C413.425 257.637 413.388 257.375 413.312 257.112C413.312 257.075 413.312 257.075 413.312 257.037C413.2 256.475 413.087 255.912 413.05 255.35L416.087 251.675L421.15 253.362L422.688 259.25L420.25 262.438L415.3 261.688ZM430.338 267.613C430.075 267.688 429.813 267.725 429.588 267.762C429.55 267.762 429.512 267.763 429.475 267.8C429.25 267.838 429.025 267.875 428.8 267.912C428.725 267.912 428.687 267.912 428.612 267.95C428.425 267.987 428.2 267.988 427.975 268.025C427.9 268.025 427.862 268.025 427.787 268.025C427.525 268.025 427.262 268.062 427 268.062C426.738 268.062 426.512 268.063 426.25 268.025C426.212 268.025 426.175 268.025 426.175 268.025C425.95 268.025 425.725 267.988 425.537 267.988H425.5C425.013 267.95 424.563 267.875 424.075 267.762L421.112 263.15L423.513 259.963H430.487L432.925 263.15L430.338 267.613ZM440.688 257C440.688 257.038 440.688 257.038 440.688 257.075C440.65 257.338 440.575 257.563 440.5 257.825L440.463 257.938C440.388 258.2 440.312 258.462 440.2 258.688C440.012 259.212 439.788 259.737 439.525 260.225C439.413 260.45 439.263 260.712 439.15 260.938L439.113 260.975C438.963 261.2 438.85 261.425 438.7 261.65L433.75 262.438L431.312 259.213L432.775 253.325L437.875 251.638L440.912 255.312C440.875 255.875 440.8 256.438 440.688 257Z" fill="#35236D" fill-opacity="0.08"/>
<path d="M1679 768C1670.71 768 1664 774.712 1664 783C1664 791.288 1670.71 798 1679 798C1687.29 798 1694 791.288 1694 783C1694 774.712 1687.29 768 1679 768ZM1679.53 772.312L1684.74 770.25C1685.34 770.512 1685.9 770.812 1686.46 771.188C1686.99 771.525 1687.51 771.9 1688 772.312L1688.04 772.35C1688.26 772.538 1688.49 772.725 1688.68 772.913C1688.71 772.95 1688.71 772.95 1688.75 772.988C1688.98 773.213 1689.16 773.4 1689.39 773.625C1689.39 773.663 1689.43 773.662 1689.43 773.7C1689.61 773.887 1689.76 774.112 1689.95 774.3C1689.99 774.337 1690.02 774.413 1690.06 774.45C1690.25 774.675 1690.4 774.938 1690.59 775.163L1689.57 779.625L1684.47 781.312L1679.53 777.375V772.312ZM1667.9 774.487C1667.94 774.45 1667.97 774.375 1668.01 774.337C1668.16 774.112 1668.35 773.925 1668.54 773.738C1668.58 773.7 1668.57 773.7 1668.57 773.663C1668.76 773.438 1668.99 773.212 1669.21 773.025C1669.25 772.987 1669.25 772.987 1669.29 772.95C1669.48 772.762 1669.7 772.575 1669.93 772.387L1669.96 772.35C1670.45 771.938 1670.98 771.563 1671.5 771.225H1671.54C1672.1 770.888 1672.66 770.587 1673.23 770.287L1678.47 772.35V777.375L1673.52 781.312L1668.43 779.625L1667.38 775.2C1667.56 774.938 1667.71 774.712 1667.9 774.487ZM1667.3 790.688C1667.15 790.462 1667 790.238 1666.89 790.013L1666.85 789.975C1666.7 789.75 1666.59 789.525 1666.47 789.263C1666.21 788.775 1665.99 788.25 1665.8 787.725C1665.73 787.462 1665.61 787.237 1665.54 786.975L1665.5 786.862C1665.42 786.637 1665.39 786.375 1665.31 786.112C1665.31 786.075 1665.31 786.075 1665.31 786.037C1665.2 785.475 1665.09 784.912 1665.05 784.35L1668.09 780.675L1673.15 782.362L1674.69 788.25L1672.25 791.438L1667.3 790.688ZM1682.34 796.613C1682.08 796.688 1681.81 796.725 1681.59 796.762C1681.55 796.762 1681.51 796.763 1681.47 796.8C1681.25 796.838 1681.02 796.875 1680.8 796.912C1680.72 796.912 1680.69 796.912 1680.61 796.95C1680.42 796.987 1680.2 796.988 1679.97 797.025C1679.9 797.025 1679.86 797.025 1679.79 797.025C1679.52 797.025 1679.26 797.062 1679 797.062C1678.74 797.062 1678.51 797.063 1678.25 797.025C1678.21 797.025 1678.17 797.025 1678.17 797.025C1677.95 797.025 1677.72 796.988 1677.54 796.988H1677.5C1677.01 796.95 1676.56 796.875 1676.08 796.762L1673.11 792.15L1675.51 788.963H1682.49L1684.92 792.15L1682.34 796.613ZM1692.69 786C1692.69 786.038 1692.69 786.038 1692.69 786.075C1692.65 786.338 1692.58 786.563 1692.5 786.825L1692.46 786.938C1692.39 787.2 1692.31 787.462 1692.2 787.688C1692.01 788.212 1691.79 788.737 1691.53 789.225C1691.41 789.45 1691.26 789.712 1691.15 789.938L1691.11 789.975C1690.96 790.2 1690.85 790.425 1690.7 790.65L1685.75 791.438L1683.31 788.213L1684.78 782.325L1689.88 780.638L1692.91 784.312C1692.87 784.875 1692.8 785.438 1692.69 786Z" fill="#35236D" fill-opacity="0.08"/>
<path d="M1732 173C1723.71 173 1717 179.712 1717 188C1717 196.288 1723.71 203 1732 203C1740.29 203 1747 196.288 1747 188C1747 179.712 1740.29 173 1732 173ZM1732.53 177.312L1737.74 175.25C1738.34 175.512 1738.9 175.812 1739.46 176.188C1739.99 176.525 1740.51 176.9 1741 177.312L1741.04 177.35C1741.26 177.538 1741.49 177.725 1741.68 177.913C1741.71 177.95 1741.71 177.95 1741.75 177.988C1741.98 178.213 1742.16 178.4 1742.39 178.625C1742.39 178.663 1742.43 178.662 1742.43 178.7C1742.61 178.887 1742.76 179.112 1742.95 179.3C1742.99 179.337 1743.02 179.413 1743.06 179.45C1743.25 179.675 1743.4 179.938 1743.59 180.163L1742.57 184.625L1737.47 186.312L1732.53 182.375V177.312ZM1720.9 179.487C1720.94 179.45 1720.97 179.375 1721.01 179.337C1721.16 179.112 1721.35 178.925 1721.54 178.738C1721.58 178.7 1721.57 178.7 1721.57 178.663C1721.76 178.438 1721.99 178.212 1722.21 178.025C1722.25 177.987 1722.25 177.987 1722.29 177.95C1722.48 177.762 1722.7 177.575 1722.93 177.387L1722.96 177.35C1723.45 176.938 1723.98 176.563 1724.5 176.225H1724.54C1725.1 175.888 1725.66 175.587 1726.23 175.287L1731.47 177.35V182.375L1726.52 186.312L1721.43 184.625L1720.38 180.2C1720.56 179.938 1720.71 179.712 1720.9 179.487ZM1720.3 195.688C1720.15 195.462 1720 195.238 1719.89 195.013L1719.85 194.975C1719.7 194.75 1719.59 194.525 1719.47 194.263C1719.21 193.775 1718.99 193.25 1718.8 192.725C1718.73 192.462 1718.61 192.237 1718.54 191.975L1718.5 191.862C1718.42 191.637 1718.39 191.375 1718.31 191.112C1718.31 191.075 1718.31 191.075 1718.31 191.037C1718.2 190.475 1718.09 189.912 1718.05 189.35L1721.09 185.675L1726.15 187.362L1727.69 193.25L1725.25 196.438L1720.3 195.688ZM1735.34 201.613C1735.08 201.688 1734.81 201.725 1734.59 201.762C1734.55 201.762 1734.51 201.763 1734.47 201.8C1734.25 201.838 1734.02 201.875 1733.8 201.912C1733.72 201.912 1733.69 201.912 1733.61 201.95C1733.42 201.987 1733.2 201.988 1732.97 202.025C1732.9 202.025 1732.86 202.025 1732.79 202.025C1732.52 202.025 1732.26 202.062 1732 202.062C1731.74 202.062 1731.51 202.063 1731.25 202.025C1731.21 202.025 1731.17 202.025 1731.17 202.025C1730.95 202.025 1730.72 201.988 1730.54 201.988H1730.5C1730.01 201.95 1729.56 201.875 1729.08 201.762L1726.11 197.15L1728.51 193.963H1735.49L1737.92 197.15L1735.34 201.613ZM1745.69 191C1745.69 191.038 1745.69 191.038 1745.69 191.075C1745.65 191.338 1745.58 191.563 1745.5 191.825L1745.46 191.938C1745.39 192.2 1745.31 192.462 1745.2 192.688C1745.01 193.212 1744.79 193.737 1744.53 194.225C1744.41 194.45 1744.26 194.712 1744.15 194.938L1744.11 194.975C1743.96 195.2 1743.85 195.425 1743.7 195.65L1738.75 196.438L1736.31 193.213L1737.78 187.325L1742.88 185.638L1745.91 189.312C1745.87 189.875 1745.8 190.438 1745.69 191Z" fill="#35236D" fill-opacity="0.08"/>
<path d="M1250 270C1241.71 270 1235 276.712 1235 285C1235 293.288 1241.71 300 1250 300C1258.29 300 1265 293.288 1265 285C1265 276.712 1258.29 270 1250 270ZM1250.53 274.312L1255.74 272.25C1256.34 272.512 1256.9 272.812 1257.46 273.188C1257.99 273.525 1258.51 273.9 1259 274.312L1259.04 274.35C1259.26 274.538 1259.49 274.725 1259.68 274.913C1259.71 274.95 1259.71 274.95 1259.75 274.988C1259.98 275.213 1260.16 275.4 1260.39 275.625C1260.39 275.663 1260.43 275.662 1260.43 275.7C1260.61 275.887 1260.76 276.112 1260.95 276.3C1260.99 276.337 1261.02 276.413 1261.06 276.45C1261.25 276.675 1261.4 276.938 1261.59 277.163L1260.57 281.625L1255.47 283.312L1250.53 279.375V274.312ZM1238.9 276.487C1238.94 276.45 1238.97 276.375 1239.01 276.337C1239.16 276.112 1239.35 275.925 1239.54 275.738C1239.58 275.7 1239.57 275.7 1239.57 275.663C1239.76 275.438 1239.99 275.212 1240.21 275.025C1240.25 274.987 1240.25 274.987 1240.29 274.95C1240.48 274.762 1240.7 274.575 1240.93 274.387L1240.96 274.35C1241.45 273.938 1241.98 273.563 1242.5 273.225H1242.54C1243.1 272.888 1243.66 272.587 1244.23 272.287L1249.47 274.35V279.375L1244.52 283.312L1239.43 281.625L1238.38 277.2C1238.56 276.938 1238.71 276.712 1238.9 276.487ZM1238.3 292.688C1238.15 292.462 1238 292.238 1237.89 292.013L1237.85 291.975C1237.7 291.75 1237.59 291.525 1237.47 291.263C1237.21 290.775 1236.99 290.25 1236.8 289.725C1236.73 289.462 1236.61 289.237 1236.54 288.975L1236.5 288.862C1236.42 288.637 1236.39 288.375 1236.31 288.112C1236.31 288.075 1236.31 288.075 1236.31 288.037C1236.2 287.475 1236.09 286.912 1236.05 286.35L1239.09 282.675L1244.15 284.362L1245.69 290.25L1243.25 293.438L1238.3 292.688ZM1253.34 298.613C1253.08 298.688 1252.81 298.725 1252.59 298.762C1252.55 298.762 1252.51 298.763 1252.47 298.8C1252.25 298.838 1252.02 298.875 1251.8 298.912C1251.72 298.912 1251.69 298.912 1251.61 298.95C1251.42 298.987 1251.2 298.988 1250.97 299.025C1250.9 299.025 1250.86 299.025 1250.79 299.025C1250.52 299.025 1250.26 299.062 1250 299.062C1249.74 299.062 1249.51 299.063 1249.25 299.025C1249.21 299.025 1249.17 299.025 1249.17 299.025C1248.95 299.025 1248.72 298.988 1248.54 298.988H1248.5C1248.01 298.95 1247.56 298.875 1247.08 298.762L1244.11 294.15L1246.51 290.963H1253.49L1255.92 294.15L1253.34 298.613ZM1263.69 288C1263.69 288.038 1263.69 288.038 1263.69 288.075C1263.65 288.338 1263.58 288.563 1263.5 288.825L1263.46 288.938C1263.39 289.2 1263.31 289.462 1263.2 289.688C1263.01 290.212 1262.79 290.737 1262.53 291.225C1262.41 291.45 1262.26 291.712 1262.15 291.938L1262.11 291.975C1261.96 292.2 1261.85 292.425 1261.7 292.65L1256.75 293.438L1254.31 290.213L1255.78 284.325L1260.88 282.638L1263.91 286.312C1263.87 286.875 1263.8 287.438 1263.69 288Z" fill="#35236D" fill-opacity="0.08"/>
<path d="M37 746C24.845 746 15 755.845 15 768C15 780.155 24.845 790 37 790C49.155 790 59 780.155 59 768C59 755.845 49.155 746 37 746ZM37.77 752.325L45.415 749.3C46.295 749.685 47.12 750.125 47.945 750.675C48.715 751.17 49.485 751.72 50.2 752.325L50.255 752.38C50.585 752.655 50.915 752.93 51.19 753.205C51.245 753.26 51.245 753.26 51.3 753.315C51.63 753.645 51.905 753.92 52.235 754.25C52.235 754.305 52.29 754.305 52.29 754.36C52.565 754.635 52.785 754.965 53.06 755.24C53.115 755.295 53.17 755.405 53.225 755.46C53.5 755.79 53.72 756.175 53.995 756.505L52.51 763.05L45.03 765.525L37.77 759.75V752.325ZM20.72 755.515C20.775 755.46 20.83 755.35 20.885 755.295C21.105 754.965 21.38 754.69 21.655 754.415C21.71 754.36 21.71 754.36 21.71 754.305C21.985 753.975 22.315 753.645 22.645 753.37C22.7 753.315 22.7 753.315 22.755 753.26C23.03 752.985 23.36 752.71 23.69 752.435L23.745 752.38C24.46 751.775 25.23 751.225 26 750.73H26.055C26.88 750.235 27.705 749.795 28.53 749.355L36.23 752.38V759.75L28.97 765.525L21.49 763.05L19.95 756.56C20.225 756.175 20.445 755.845 20.72 755.515ZM19.84 779.275C19.62 778.945 19.4 778.615 19.235 778.285L19.18 778.23C18.96 777.9 18.795 777.57 18.63 777.185C18.245 776.47 17.915 775.7 17.64 774.93C17.53 774.545 17.365 774.215 17.255 773.83L17.2 773.665C17.09 773.335 17.035 772.95 16.925 772.565C16.925 772.51 16.925 772.51 16.925 772.455C16.76 771.63 16.595 770.805 16.54 769.98L20.995 764.59L28.42 767.065L30.675 775.7L27.1 780.375L19.84 779.275ZM41.895 787.965C41.51 788.075 41.125 788.13 40.795 788.185C40.74 788.185 40.685 788.185 40.63 788.24C40.3 788.295 39.97 788.35 39.64 788.405C39.53 788.405 39.475 788.405 39.365 788.46C39.09 788.515 38.76 788.515 38.43 788.57C38.32 788.57 38.265 788.57 38.155 788.57C37.77 788.57 37.385 788.625 37 788.625C36.615 788.625 36.285 788.625 35.9 788.57C35.845 788.57 35.79 788.57 35.79 788.57C35.46 788.57 35.13 788.515 34.855 788.515H34.8C34.085 788.46 33.425 788.35 32.71 788.185L28.365 781.42L31.885 776.745H42.115L45.69 781.42L41.895 787.965ZM57.075 772.4C57.075 772.455 57.075 772.455 57.075 772.51C57.02 772.895 56.91 773.225 56.8 773.61L56.745 773.775C56.635 774.16 56.525 774.545 56.36 774.875C56.085 775.645 55.755 776.415 55.37 777.13C55.205 777.46 54.985 777.845 54.82 778.175L54.765 778.23C54.545 778.56 54.38 778.89 54.16 779.22L46.9 780.375L43.325 775.645L45.47 767.01L52.95 764.535L57.405 769.925C57.35 770.75 57.24 771.575 57.075 772.4Z" fill="#35236D" fill-opacity="0.08"/>
<path d="M713 790C700.845 790 691 799.845 691 812C691 824.155 700.845 834 713 834C725.155 834 735 824.155 735 812C735 799.845 725.155 790 713 790ZM713.77 796.325L721.415 793.3C722.295 793.685 723.12 794.125 723.945 794.675C724.715 795.17 725.485 795.72 726.2 796.325L726.255 796.38C726.585 796.655 726.915 796.93 727.19 797.205C727.245 797.26 727.245 797.26 727.3 797.315C727.63 797.645 727.905 797.92 728.235 798.25C728.235 798.305 728.29 798.305 728.29 798.36C728.565 798.635 728.785 798.965 729.06 799.24C729.115 799.295 729.17 799.405 729.225 799.46C729.5 799.79 729.72 800.175 729.995 800.505L728.51 807.05L721.03 809.525L713.77 803.75V796.325ZM696.72 799.515C696.775 799.46 696.83 799.35 696.885 799.295C697.105 798.965 697.38 798.69 697.655 798.415C697.71 798.36 697.71 798.36 697.71 798.305C697.985 797.975 698.315 797.645 698.645 797.37C698.7 797.315 698.7 797.315 698.755 797.26C699.03 796.985 699.36 796.71 699.69 796.435L699.745 796.38C700.46 795.775 701.23 795.225 702 794.73H702.055C702.88 794.235 703.705 793.795 704.53 793.355L712.23 796.38V803.75L704.97 809.525L697.49 807.05L695.95 800.56C696.225 800.175 696.445 799.845 696.72 799.515ZM695.84 823.275C695.62 822.945 695.4 822.615 695.235 822.285L695.18 822.23C694.96 821.9 694.795 821.57 694.63 821.185C694.245 820.47 693.915 819.7 693.64 818.93C693.53 818.545 693.365 818.215 693.255 817.83L693.2 817.665C693.09 817.335 693.035 816.95 692.925 816.565C692.925 816.51 692.925 816.51 692.925 816.455C692.76 815.63 692.595 814.805 692.54 813.98L696.995 808.59L704.42 811.065L706.675 819.7L703.1 824.375L695.84 823.275ZM717.895 831.965C717.51 832.075 717.125 832.13 716.795 832.185C716.74 832.185 716.685 832.185 716.63 832.24C716.3 832.295 715.97 832.35 715.64 832.405C715.53 832.405 715.475 832.405 715.365 832.46C715.09 832.515 714.76 832.515 714.43 832.57C714.32 832.57 714.265 832.57 714.155 832.57C713.77 832.57 713.385 832.625 713 832.625C712.615 832.625 712.285 832.625 711.9 832.57C711.845 832.57 711.79 832.57 711.79 832.57C711.46 832.57 711.13 832.515 710.855 832.515H710.8C710.085 832.46 709.425 832.35 708.71 832.185L704.365 825.42L707.885 820.745H718.115L721.69 825.42L717.895 831.965ZM733.075 816.4C733.075 816.455 733.075 816.455 733.075 816.51C733.02 816.895 732.91 817.225 732.8 817.61L732.745 817.775C732.635 818.16 732.525 818.545 732.36 818.875C732.085 819.645 731.755 820.415 731.37 821.13C731.205 821.46 730.985 821.845 730.82 822.175L730.765 822.23C730.545 822.56 730.38 822.89 730.16 823.22L722.9 824.375L719.325 819.645L721.47 811.01L728.95 808.535L733.405 813.925C733.35 814.75 733.24 815.575 733.075 816.4Z" fill="#35236D" fill-opacity="0.08"/>
</svg>
