<svg width="24" height="24" viewBox="0 0 26 26" fill="none" xmlns="http://www.w3.org/2000/svg">
<path d="M19.1582 10.0165C18.9301 9.77443 18.5309 9.77443 18.2458 10.0165L12.9996 15.5853L7.75338 10.0165C7.52528 9.77443 7.12612 9.77443 6.84099 10.0165C6.72695 10.1376 6.66992 10.3192 6.66992 10.5008C6.66992 10.6824 6.72695 10.864 6.84099 10.985L12.5434 17.038C12.6574 17.159 12.8285 17.2196 12.9996 17.2196C13.1707 17.2196 13.3417 17.159 13.4558 17.038L19.1582 10.985C19.2722 10.864 19.3293 10.6824 19.3293 10.5008C19.3293 10.3192 19.2722 10.1376 19.1582 10.0165Z" fill="#423076"/>
<path d="M0.75 13C0.75 19.7381 6.26193 25.25 13 25.25C19.7381 25.25 25.25 19.7381 25.25 13C25.25 6.26193 19.7381 0.75 13 0.75C6.26193 0.75 0.75 6.26193 0.75 13ZM1.65 13C1.65 6.73807 6.73807 1.65 13 1.65C19.2619 1.65 24.35 6.73807 24.35 13C24.35 19.2619 19.2619 24.35 13 24.35C6.73807 24.35 1.65 19.2619 1.65 13Z" fill="#423076" stroke="#423076" stroke-width="0.5"/>
</svg>
