<svg width="7" height="11" viewBox="0 0 7 11" fill="none" xmlns="http://www.w3.org/2000/svg">
<path d="M6.44331 9.856C6.62889 9.66437 6.61001 9.34962 6.40016 9.13658L1.63559 5.27074L5.90396 0.863154C6.08954 0.671519 6.07067 0.35677 5.86081 0.143726C5.75724 0.0596863 5.60726 0.0235544 5.45999 0.0323873C5.31271 0.0412202 5.16813 0.0950179 5.07534 0.190835L0.435802 4.98169C0.34301 5.07751 0.302009 5.21534 0.310099 5.35024C0.31819 5.48513 0.375371 5.61708 0.478949 5.70112L5.65783 9.90311C5.76141 9.98715 5.91139 10.0233 6.05866 10.0145C6.20594 10.0056 6.35052 9.95182 6.44331 9.856Z" fill="#7A7A7A"/>
</svg>
