<svg width="26" height="26" viewBox="0 0 26 26" fill="none" xmlns="http://www.w3.org/2000/svg">
<path d="M19.1582 10.0165C18.9301 9.77443 18.5309 9.77443 18.2458 10.0165L12.9996 15.5853L7.75338 10.0165C7.52528 9.77443 7.12612 9.77443 6.84099 10.0165C6.72695 10.1376 6.66992 10.3192 6.66992 10.5008C6.66992 10.6824 6.72695 10.864 6.84099 10.985L12.5434 17.038C12.6574 17.159 12.8285 17.2196 12.9996 17.2196C13.1707 17.2196 13.3417 17.159 13.4558 17.038L19.1582 10.985C19.2722 10.864 19.3293 10.6824 19.3293 10.5008C19.3293 10.3192 19.2722 10.1376 19.1582 10.0165Z" fill="white"/>
<path d="M0.85 13C0.85 19.6828 6.31716 25.15 13 25.15C19.6828 25.15 25.15 19.6828 25.15 13C25.15 6.31716 19.6828 0.85 13 0.85C6.31716 0.85 0.85 6.31716 0.85 13ZM1.55 13C1.55 6.68284 6.68284 1.55 13 1.55C19.3172 1.55 24.45 6.68284 24.45 13C24.45 19.3172 19.3172 24.45 13 24.45C6.68284 24.45 1.55 19.3172 1.55 13Z" fill="white" stroke="white" stroke-width="0.3"/>
</svg>
