<svg width="15" height="15" viewBox="0 0 15 15" fill="none" xmlns="http://www.w3.org/2000/svg">
<path d="M5.25 5.22C3.99 6.48 3.99 8.49 5.25 9.75C6.51 11.01 8.52 11.01 9.78 9.75C10.02 9.51 10.38 9.51 10.62 9.75C10.86 9.99 10.86 10.35 10.62 10.59C9.78 11.43 8.64 11.88 7.53 11.88C6.42 11.88 5.28 11.46 4.44 10.59C2.7 8.85 2.7 6.09 4.41 4.38C6.12 2.67 8.88 2.67 10.59 4.38C10.83 4.62 10.83 4.98 10.59 5.22C10.35 5.46 9.99 5.46 9.75 5.22C8.52 3.96 6.48 3.96 5.25 5.22ZM12.81 2.19C11.4 0.78 9.51 0 7.5 0C5.49 0 3.6 0.78 2.19 2.19C0.78 3.6 0 5.49 0 7.5C0 9.51 0.78 11.4 2.19 12.81C3.6 14.22 5.49 15 7.5 15C8.88 15 10.2 14.64 11.37 13.92C11.64 13.74 11.73 13.38 11.58 13.11C11.4 12.84 11.04 12.75 10.77 12.9C9.78 13.5 8.64 13.8 7.5 13.8C4.02 13.83 1.17 10.98 1.17 7.5C1.17 4.02 4.02 1.17 7.5 1.17C10.98 1.17 13.83 4.02 13.83 7.5C13.83 8.76 13.47 9.96 12.75 11.01C12.57 11.28 12.63 11.64 12.9 11.82C13.17 12 13.53 11.94 13.71 11.67C14.55 10.41 15 8.97 15 7.5C15 5.49 14.22 3.6 12.81 2.19Z" fill="white"/>
</svg>
