<svg width="33" height="25" viewBox="0 0 33 25" fill="none" xmlns="http://www.w3.org/2000/svg">
<path d="M29.7917 7.375H26.5V2.70833C26.5 1.20833 25.2917 0 23.7917 0H2.70833C1.20833 0 0 1.20833 0 2.70833V14.875C0 16.375 1.20833 17.5833 2.70833 17.5833H6V22.25C6 23.75 7.20833 24.9583 8.70833 24.9583H29.7917C31.2917 24.9583 32.5 23.75 32.5 22.25V10.0833C32.5417 8.625 31.2917 7.375 29.7917 7.375ZM1.54167 2.70833C1.54167 2.08333 2.08333 1.54167 2.70833 1.54167H23.7917C24.4167 1.54167 24.9583 2.08333 24.9583 2.70833V3.79167H1.54167V2.70833ZM6.04167 10.0833V16.0417H2.70833C2.08333 16.0417 1.54167 15.5 1.54167 14.875V8.95833H6.29167C6.125 9.29167 6.04167 9.70833 6.04167 10.0833ZM1.54167 7.375V5.33333H24.9167V7.375H8.75C8.70833 7.375 8.625 7.375 8.58333 7.375H1.54167ZM29.7917 23.4583H8.75C8.125 23.4583 7.58333 22.9167 7.58333 22.2917V10.0833C7.58333 9.45833 8.04167 8.95833 8.66667 8.91667H25.75C25.7917 8.91667 25.7917 8.91667 25.8333 8.91667H29.8333C30.4583 8.91667 31 9.45833 31 10.0833V22.25C30.9583 22.9167 30.4583 23.4583 29.7917 23.4583Z" fill="#444444"/>
<path d="M21.6257 12.459C20.7506 12.459 19.9173 12.7507 19.2923 13.2923C18.6256 12.7507 17.834 12.459 16.959 12.459C14.9173 12.459 13.209 14.1257 13.209 16.209C13.209 18.2507 14.8757 19.959 16.959 19.959C17.834 19.959 18.6256 19.6673 19.2923 19.1257C19.9173 19.6257 20.7506 19.959 21.6257 19.959C23.6673 19.959 25.3756 18.2923 25.3756 16.209C25.3756 14.1257 23.6673 12.459 21.6257 12.459ZM18.2923 17.9173C17.9173 18.209 17.4173 18.3756 16.959 18.3756C15.7507 18.3756 14.7507 17.3757 14.7507 16.1673C14.7507 14.959 15.7507 13.959 16.959 13.959C17.459 13.959 17.9173 14.1257 18.2923 14.4173C18.0423 14.9173 17.8757 15.5007 17.8757 16.1257C17.8757 16.834 18.0423 17.4173 18.2923 17.9173ZM21.6257 18.3756C20.4173 18.3756 19.4173 17.3757 19.4173 16.1673C19.4173 14.959 20.4173 13.959 21.6257 13.959C22.834 13.959 23.834 14.959 23.834 16.1673C23.7923 17.4173 22.834 18.3756 21.6257 18.3756Z" fill="#444444"/>
</svg>
