<svg width="61" height="37" viewBox="0 0 61 37" fill="none" xmlns="http://www.w3.org/2000/svg">
<path d="M60 3.1003C60 1.39818 58.6018 0 56.8997 0L3.1003 0.0607903C2.24924 0.0607903 1.51976 0.364742 0.911854 0.972645C0.303951 1.58055 0 2.31003 0 3.16109L0.0607903 33.4347C0.0607903 34.2857 0.364742 35.0152 0.972644 35.6231C1.58055 36.231 2.31003 36.535 3.16109 36.535L57.0213 36.4742C58.7234 36.4742 60.1216 35.076 60.1216 33.3739L60 3.1003ZM53.5562 3.1003L30.0304 19.4529L6.44377 3.16109L53.5562 3.1003ZM39.9392 22.4924L53.8602 33.3131L6.07903 33.3739L20.1216 22.4924C20.7903 21.9453 20.9119 21.0334 20.3647 20.3647C19.8176 19.6961 18.9058 19.5745 18.2371 20.1216L3.1003 31.7933V4.55927L29.1793 22.5532C29.4225 22.7356 29.7264 22.7964 30.0304 22.7964C30.3343 22.7964 30.6383 22.6748 30.8815 22.4924L56.8997 4.49848L56.9605 31.7933L41.8237 20.0608C41.155 19.5137 40.1824 19.6353 39.696 20.304C39.1489 21.0334 39.2705 22.0061 39.9392 22.4924Z" fill="#BFAFEE"/>
</svg>
