<svg width="34" height="16" viewBox="0 0 34 16" fill="none" xmlns="http://www.w3.org/2000/svg">
<path d="M30.176 0C28.192 0 26.592 1.6 26.592 3.584C26.592 4.32 26.816 4.992 27.168 5.536L23.296 9.408C22.72 9.056 22.048 8.832 21.344 8.832C20.608 8.832 19.904 9.056 19.328 9.44L15.424 5.536C15.776 4.96 16 4.288 16 3.584C16 1.6 14.4 0 12.416 0C10.432 0 8.832 1.6 8.832 3.584C8.832 4.32 9.056 4.96 9.408 5.536L5.536 9.408C4.96 9.056 4.288 8.832 3.584 8.832C1.6 8.832 0 10.432 0 12.416C0 14.4 1.6 16 3.584 16C5.568 16 7.168 14.4 7.168 12.416C7.168 11.68 6.944 11.008 6.592 10.464L10.464 6.592C11.04 6.944 11.712 7.168 12.416 7.168C13.152 7.168 13.824 6.944 14.368 6.592L18.304 10.528C17.952 11.072 17.76 11.712 17.76 12.416C17.76 14.4 19.36 16 21.344 16C23.328 16 24.928 14.4 24.928 12.416C24.928 11.68 24.704 11.04 24.352 10.464L28.224 6.592C28.8 6.944 29.472 7.168 30.176 7.168C32.16 7.168 33.76 5.568 33.76 3.584C33.76 1.6 32.16 0 30.176 0ZM3.584 14.528C2.432 14.528 1.472 13.6 1.472 12.416C1.472 11.264 2.4 10.304 3.584 10.304C4.736 10.304 5.696 11.232 5.696 12.416C5.696 13.568 4.736 14.528 3.584 14.528ZM12.416 5.696C11.264 5.696 10.304 4.768 10.304 3.584C10.304 2.432 11.232 1.472 12.416 1.472C13.6 1.472 14.528 2.4 14.528 3.584C14.528 4.768 13.568 5.696 12.416 5.696ZM21.344 14.528C20.192 14.528 19.232 13.6 19.232 12.416C19.232 11.264 20.16 10.304 21.344 10.304C22.496 10.304 23.456 11.232 23.456 12.416C23.456 13.568 22.496 14.528 21.344 14.528ZM30.176 5.696C29.024 5.696 28.064 4.768 28.064 3.584C28.064 2.432 28.992 1.472 30.176 1.472C31.328 1.472 32.288 2.4 32.288 3.584C32.288 4.768 31.328 5.696 30.176 5.696Z" fill="#444444"/>
<path d="M11.6471 9.08709C11.3591 8.79909 10.8791 8.79909 10.5911 9.08709L9.08709 10.5911C8.79909 10.8791 8.79909 11.3591 9.08709 11.6471C9.24709 11.8071 9.40709 11.8711 9.59909 11.8711C9.79109 11.8711 9.98309 11.8071 10.1111 11.6471L11.6151 10.1431C11.9351 9.85509 11.9351 9.37509 11.6471 9.08709Z" fill="#444444"/>
<path d="M24.6725 4.38397C24.3845 4.09597 23.9045 4.09597 23.6165 4.38397L22.1125 5.88797C21.8245 6.17597 21.8245 6.65597 22.1125 6.94397C22.2725 7.10397 22.4325 7.16797 22.6245 7.16797C22.8165 7.16797 23.0085 7.10397 23.1365 6.94397L24.6405 5.43997C24.9605 5.11997 24.9605 4.67197 24.6725 4.38397Z" fill="#444444"/>
</svg>
