<svg width="25" height="25" viewBox="0 0 25 25" fill="none" xmlns="http://www.w3.org/2000/svg">
<path d="M19.0833 3.83333C19.4167 3.83333 19.6667 3.58333 19.6667 3.25V1.33333C19.6667 0.625 19.0833 0 18.3333 0H5.58333C5.41667 0 5.25 0.0833333 5.16667 0.166667L0.166667 5.16667C0.0416667 5.29167 0 5.41667 0 5.58333V23.6667C0 24.4167 0.583333 25 1.33333 25H18.375C19.0833 25 19.7083 24.4167 19.7083 23.6667V14.4583C19.7083 14.125 19.4583 13.875 19.125 13.875C18.7917 13.875 18.5417 14.125 18.5417 14.4583V23.6667C18.5417 23.7083 18.5 23.7917 18.4167 23.7917H1.33333C1.29167 23.7917 1.20833 23.75 1.20833 23.6667V6.20833H4.875C5.58333 6.20833 6.20833 5.625 6.20833 4.875V1.20833H18.375C18.4167 1.20833 18.5 1.25 18.5 1.33333V3.25C18.5 3.54167 18.75 3.83333 19.0833 3.83333ZM5 4.875C5 4.91667 4.95833 5 4.875 5H2.04167L5 2.04167V4.875Z" fill="#444444"/>
<path d="M23.7064 4.91732L22.998 4.20898C22.2064 3.41732 20.9147 3.41732 20.123 4.20898L14.498 9.83398H4.70638C4.37305 9.83398 4.12305 10.084 4.12305 10.4173C4.12305 10.7507 4.37305 11.0007 4.70638 11.0007H13.2897L9.66471 14.6257H4.70638C4.37305 14.6257 4.12305 14.8757 4.12305 15.209C4.12305 15.5423 4.37305 15.7923 4.70638 15.7923H8.45638C8.37305 15.8757 8.33138 15.959 8.28971 16.0423L7.37305 19.4173H4.74805C4.41471 19.4173 4.16471 19.6673 4.16471 20.0007C4.16471 20.334 4.41471 20.584 4.74805 20.584H7.83138C7.83138 20.584 7.95638 20.584 7.99805 20.584L11.7897 19.5423C11.873 19.5007 11.998 19.459 12.0397 19.3757L23.748 7.66732C24.5397 7.00065 24.5397 5.70898 23.7064 4.91732ZM8.66471 19.2507L9.16471 17.459L10.4564 18.7507L8.66471 19.2507ZM11.623 18.209L9.74805 16.334L19.373 6.66732L21.248 8.54232L11.623 18.209ZM22.873 6.91732L22.123 7.66732L20.248 5.79232L20.998 5.04232C21.3314 4.70898 21.873 4.70898 22.1647 5.04232L22.873 5.75065C23.2064 6.08398 23.2064 6.62565 22.873 6.91732Z" fill="#444444"/>
</svg>
